<svg xmlns="http://www.w3.org/2000/svg" width="640" height="320" viewBox="0 0 640 320" font-family="Work Sans,sans-serif"><defs><marker id="ah" markerWidth="9" markerHeight="9" refX="6.5" refY="3" orient="auto"><path d="M0,0 L6.5,3 L0,6 Z" fill="#8b929c"/></marker><linearGradient id="gC" x1="0" y1="0" x2="0" y2="1"><stop offset="0" stop-color="#5b86b8"/><stop offset="1" stop-color="#36567f"/></linearGradient><linearGradient id="gD" x1="0" y1="0" x2="0" y2="1"><stop offset="0" stop-color="#e7ecf3"/><stop offset="1" stop-color="#cfd8e6"/></linearGradient><symbol id="ic-meter" viewBox="0 0 24 24"><g fill="none" stroke="currentColor" stroke-width="1.7" stroke-linecap="round" stroke-linejoin="round"><rect x="5" y="2.5" width="14" height="19" rx="2.2"/><rect x="8" y="6" width="8" height="4.5" rx="1"/><circle cx="9.5" cy="15.5" r="1.2"/><circle cx="14.5" cy="15.5" r="1.2"/></g></symbol><symbol id="ic-fridge" viewBox="0 0 24 24"><g fill="none" stroke="currentColor" stroke-width="1.7" stroke-linecap="round" stroke-linejoin="round"><rect x="6" y="2.5" width="12" height="19" rx="2.2"/><line x1="6" y1="9.5" x2="18" y2="9.5"/><line x1="9" y1="5" x2="9" y2="7"/><line x1="9" y1="12.5" x2="9" y2="15"/></g></symbol><symbol id="ic-washer" viewBox="0 0 24 24"><g fill="none" stroke="currentColor" stroke-width="1.7" stroke-linecap="round" stroke-linejoin="round"><rect x="4.5" y="3" width="15" height="18" rx="2.2"/><circle cx="12" cy="13.5" r="4.8"/><circle cx="12" cy="13.5" r="1.4"/><line x1="7" y1="6.2" x2="9" y2="6.2"/></g></symbol><symbol id="ic-dishwasher" viewBox="0 0 24 24"><g fill="none" stroke="currentColor" stroke-width="1.7" stroke-linecap="round" stroke-linejoin="round"><rect x="5" y="3" width="14" height="18" rx="2"/><line x1="5" y1="7.5" x2="19" y2="7.5"/><line x1="8" y1="5.2" x2="11" y2="5.2"/><rect x="8.5" y="10" width="7" height="8" rx="1"/></g></symbol><symbol id="ic-kettle" viewBox="0 0 24 24"><g fill="none" stroke="currentColor" stroke-width="1.7" stroke-linecap="round" stroke-linejoin="round"><path d="M7 11 h9 v6.5 a2.5 2.5 0 0 1 -2.5 2.5 h-4 a2.5 2.5 0 0 1 -2.5 -2.5 z"/><path d="M16 12 l3 -2.5"/><path d="M8.5 11 a3.2 3.2 0 0 1 6 0"/><line x1="11.5" y1="7.6" x2="11.5" y2="8.6"/></g></symbol><symbol id="ic-microwave" viewBox="0 0 24 24"><g fill="none" stroke="currentColor" stroke-width="1.7" stroke-linecap="round" stroke-linejoin="round"><rect x="2.5" y="6" width="19" height="12" rx="2"/><rect x="5" y="8.5" width="9.5" height="7" rx="1"/><circle cx="18" cy="10" r="0.9" fill="currentColor" stroke="none"/><line x1="17" y1="13" x2="19" y2="13"/></g></symbol><symbol id="ic-tv" viewBox="0 0 24 24"><g fill="none" stroke="currentColor" stroke-width="1.7" stroke-linecap="round" stroke-linejoin="round"><rect x="2.5" y="5" width="19" height="12.5" rx="2"/><line x1="8.5" y1="20.5" x2="15.5" y2="20.5"/><line x1="12" y1="17.5" x2="12" y2="20.5"/></g></symbol></defs><rect x="196" y="40" width="380" height="186" rx="10" fill="none" stroke="#d8dbe0" stroke-width="1.2" stroke-dasharray="5 4"/><text x="386" y="33" text-anchor="middle" font-size="12" fill="#5a626e">hidden appliance states</text><use href="#ic-fridge" x="150" y="51" width="26" height="26" color="#3b6ea5"/><line x1="249" y1="64" x2="361" y2="64" stroke="#1b3b6f" stroke-width="1.4" marker-end="url(#ah)"/><line x1="399" y1="64" x2="511" y2="64" stroke="#1b3b6f" stroke-width="1.4" marker-end="url(#ah)"/><circle cx="230" cy="64" r="18" fill="#eef2f8" stroke="#1b3b6f" stroke-width="1.6"/><text x="230" y="68" text-anchor="middle" font-size="12.5" fill="#1b3b6f">z</text><circle cx="380" cy="64" r="18" fill="#eef2f8" stroke="#1b3b6f" stroke-width="1.6"/><text x="380" y="68" text-anchor="middle" font-size="12.5" fill="#1b3b6f">z</text><circle cx="530" cy="64" r="18" fill="#eef2f8" stroke="#1b3b6f" stroke-width="1.6"/><text x="530" y="68" text-anchor="middle" font-size="12.5" fill="#1b3b6f">z</text><use href="#ic-washer" x="150" y="117" width="26" height="26" color="#c44536"/><line x1="249" y1="130" x2="361" y2="130" stroke="#1b3b6f" stroke-width="1.4" marker-end="url(#ah)"/><line x1="399" y1="130" x2="511" y2="130" stroke="#1b3b6f" stroke-width="1.4" marker-end="url(#ah)"/><circle cx="230" cy="130" r="18" fill="#eef2f8" stroke="#1b3b6f" stroke-width="1.6"/><text x="230" y="134" text-anchor="middle" font-size="12.5" fill="#1b3b6f">z</text><circle cx="380" cy="130" r="18" fill="#eef2f8" stroke="#1b3b6f" stroke-width="1.6"/><text x="380" y="134" text-anchor="middle" font-size="12.5" fill="#1b3b6f">z</text><circle cx="530" cy="130" r="18" fill="#eef2f8" stroke="#1b3b6f" stroke-width="1.6"/><text x="530" y="134" text-anchor="middle" font-size="12.5" fill="#1b3b6f">z</text><use href="#ic-dishwasher" x="150" y="183" width="26" height="26" color="#2a9d8f"/><line x1="249" y1="196" x2="361" y2="196" stroke="#1b3b6f" stroke-width="1.4" marker-end="url(#ah)"/><line x1="399" y1="196" x2="511" y2="196" stroke="#1b3b6f" stroke-width="1.4" marker-end="url(#ah)"/><circle cx="230" cy="196" r="18" fill="#eef2f8" stroke="#1b3b6f" stroke-width="1.6"/><text x="230" y="200" text-anchor="middle" font-size="12.5" fill="#1b3b6f">z</text><circle cx="380" cy="196" r="18" fill="#eef2f8" stroke="#1b3b6f" stroke-width="1.6"/><text x="380" y="200" text-anchor="middle" font-size="12.5" fill="#1b3b6f">z</text><circle cx="530" cy="196" r="18" fill="#eef2f8" stroke="#1b3b6f" stroke-width="1.6"/><text x="530" y="200" text-anchor="middle" font-size="12.5" fill="#1b3b6f">z</text><line x1="230" y1="82" x2="230" y2="249" stroke="#d8dbe0" stroke-width="1.2" marker-end="url(#ah)"/><line x1="230" y1="148" x2="230" y2="249" stroke="#d8dbe0" stroke-width="1.2" marker-end="url(#ah)"/><line x1="230" y1="214" x2="230" y2="249" stroke="#d8dbe0" stroke-width="1.2" marker-end="url(#ah)"/><circle cx="230" cy="270" r="21" fill="#fbeeec" stroke="#c44536" stroke-width="1.7"/><text x="230" y="275" text-anchor="middle" font-size="14" fill="#c44536">y</text><line x1="380" y1="82" x2="380" y2="249" stroke="#d8dbe0" stroke-width="1.2" marker-end="url(#ah)"/><line x1="380" y1="148" x2="380" y2="249" stroke="#d8dbe0" stroke-width="1.2" marker-end="url(#ah)"/><line x1="380" y1="214" x2="380" y2="249" stroke="#d8dbe0" stroke-width="1.2" marker-end="url(#ah)"/><circle cx="380" cy="270" r="21" fill="#fbeeec" stroke="#c44536" stroke-width="1.7"/><text x="380" y="275" text-anchor="middle" font-size="14" fill="#c44536">y</text><line x1="530" y1="82" x2="530" y2="249" stroke="#d8dbe0" stroke-width="1.2" marker-end="url(#ah)"/><line x1="530" y1="148" x2="530" y2="249" stroke="#d8dbe0" stroke-width="1.2" marker-end="url(#ah)"/><line x1="530" y1="214" x2="530" y2="249" stroke="#d8dbe0" stroke-width="1.2" marker-end="url(#ah)"/><circle cx="530" cy="270" r="21" fill="#fbeeec" stroke="#c44536" stroke-width="1.7"/><text x="530" y="275" text-anchor="middle" font-size="14" fill="#c44536">y</text><use href="#ic-meter" x="150" y="255" width="28" height="28" color="#1b2330"/><text x="40" y="275" font-size="13" font-weight="600" fill="#c44536">aggregate</text><text x="230" y="312" text-anchor="middle" font-size="11" fill="#8b929c">t</text><text x="380" y="312" text-anchor="middle" font-size="11" fill="#8b929c">t+1</text><text x="530" y="312" text-anchor="middle" font-size="11" fill="#8b929c">t+2</text></svg>