<svg xmlns="http://www.w3.org/2000/svg" viewBox="0 0 1662 946" width="1662" height="946">
<defs>
  <filter id="shadow" x="-8%" y="-8%" width="116%" height="116%">
    <feDropShadow dx="0" dy="18" stdDeviation="18" flood-color="#1b2330" flood-opacity=".12"/>
  </filter>
  <style>
    .font{font-family:'Work Sans',Arial,sans-serif}
    .title{font-size:52px;font-weight:700;fill:#1b3b6f}
    .group{font-size:24px;font-weight:700;fill:#1b3b6f}
    .head{font-size:20px;font-weight:700;fill:#1b3b6f}
    .sub{font-size:15px;fill:#48515e}
    .cell{font-size:21px;fill:#1b2330}
    .num{font-size:21px;fill:#1b3b6f}
    .red{fill:#c44536}
    .line{stroke:#d8dbe0;stroke-width:1.4}
    .dash{stroke:#d8dbe0;stroke-width:2;stroke-dasharray:6 8}
    .thin{stroke:#1b3b6f;stroke-width:2}
  </style>
</defs>

<rect width="1662" height="946" fill="#ffffff"/>
<g class="font" filter="url(#shadow)">
  <rect x="42" y="54" width="1578" height="838" rx="16" fill="#ffffff" stroke="#d8dbe0" stroke-width="1.6"/>
  <text x="90" y="132" class="title">NILM OOD-first Leaderboard</text>

  <g transform="translate(86 188)">
    <text x="642" y="0" class="group" text-anchor="middle">MAE (↓)</text>
    <line x1="434" y1="18" x2="850" y2="18" class="thin"/>
    <text x="1108" y="0" class="group" text-anchor="middle">F1 Score (↑)</text>
    <line x1="900" y1="18" x2="1316" y2="18" class="thin"/>

    <rect x="0" y="122" width="1490" height="72" fill="#fff5f4"/>
    <rect x="0" y="122" width="5" height="72" fill="#c44536" rx="2.5"/>

    <line x1="0" y1="122" x2="1490" y2="122" class="line"/>
    <line x1="0" y1="194" x2="1490" y2="194" class="line"/>
    <line x1="0" y1="266" x2="1490" y2="266" class="line"/>
    <line x1="0" y1="338" x2="1490" y2="338" class="line"/>
    <line x1="0" y1="410" x2="1490" y2="410" class="line"/>
    <line x1="0" y1="482" x2="1490" y2="482" class="line"/>
    <line x1="0" y1="554" x2="1490" y2="554" class="line"/>

    <line x1="880" y1="20" x2="880" y2="554" class="dash"/>
    <line x1="1328" y1="20" x2="1328" y2="554" class="dash"/>

    <rect x="710" y="20" width="132" height="102" rx="8" fill="#fbeeec"/>
    <rect x="1156" y="20" width="132" height="102" rx="8" fill="#fbeeec"/>

    <text x="52" y="72" class="head" text-anchor="middle">Rank</text>
    <text x="180" y="72" class="head" text-anchor="middle">Model</text>

    <text x="508" y="62" class="head" text-anchor="middle">T1</text>
    <text x="508" y="90" class="sub" text-anchor="middle">same home</text>
    <text x="642" y="62" class="head" text-anchor="middle">T2</text>
    <text x="642" y="90" class="sub" text-anchor="middle">new home</text>
    <text x="776" y="62" class="head red" text-anchor="middle">T3</text>
    <text x="776" y="90" class="sub red" text-anchor="middle">new dataset</text>

    <text x="954" y="62" class="head" text-anchor="middle">T1</text>
    <text x="954" y="90" class="sub" text-anchor="middle">same home</text>
    <text x="1088" y="62" class="head" text-anchor="middle">T2</text>
    <text x="1088" y="90" class="sub" text-anchor="middle">new home</text>
    <text x="1222" y="62" class="head red" text-anchor="middle">T3</text>
    <text x="1222" y="90" class="sub red" text-anchor="middle">new dataset</text>

    <text x="1382" y="62" class="head" text-anchor="middle">Params</text>
    <text x="1382" y="90" class="sub" text-anchor="middle">(M)</text>
    <text x="1462" y="62" class="head" text-anchor="middle">FLOPs</text>
    <text x="1462" y="90" class="sub" text-anchor="middle">(G)</text>

    <g font-weight="600">
      <text x="52" y="167" class="cell red" text-anchor="middle">1</text>
      <text x="180" y="167" class="cell red" text-anchor="middle">Model A</text>
      <text x="508" y="167" class="num" text-anchor="middle">24.1</text>
      <text x="642" y="167" class="num" text-anchor="middle">32.6</text>
      <text x="776" y="167" class="num red" text-anchor="middle">41.8</text>
      <text x="954" y="167" class="num" text-anchor="middle">0.842</text>
      <text x="1088" y="167" class="num" text-anchor="middle">0.759</text>
      <text x="1222" y="167" class="num red" text-anchor="middle">0.621</text>
      <text x="1382" y="167" class="num" text-anchor="middle">15.8</text>
      <text x="1462" y="167" class="num" text-anchor="middle">32.1</text>
    </g>

    <g>
      <text x="52" y="239" class="cell" text-anchor="middle">2</text><text x="180" y="239" class="cell" text-anchor="middle">Model B</text>
      <text x="508" y="239" class="num" text-anchor="middle">22.7</text><text x="642" y="239" class="num" text-anchor="middle">34.8</text><text x="776" y="239" class="num red" text-anchor="middle">48.7</text>
      <text x="954" y="239" class="num" text-anchor="middle">0.830</text><text x="1088" y="239" class="num" text-anchor="middle">0.731</text><text x="1222" y="239" class="num red" text-anchor="middle">0.572</text>
      <text x="1382" y="239" class="num" text-anchor="middle">28.3</text><text x="1462" y="239" class="num" text-anchor="middle">55.4</text>

      <text x="52" y="311" class="cell" text-anchor="middle">3</text><text x="180" y="311" class="cell" text-anchor="middle">Model C</text>
      <text x="508" y="311" class="num" text-anchor="middle">23.9</text><text x="642" y="311" class="num" text-anchor="middle">36.2</text><text x="776" y="311" class="num red" text-anchor="middle">49.5</text>
      <text x="954" y="311" class="num" text-anchor="middle">0.821</text><text x="1088" y="311" class="num" text-anchor="middle">0.722</text><text x="1222" y="311" class="num red" text-anchor="middle">0.560</text>
      <text x="1382" y="311" class="num" text-anchor="middle">9.7</text><text x="1462" y="311" class="num" text-anchor="middle">18.9</text>

      <text x="52" y="383" class="cell" text-anchor="middle">4</text><text x="180" y="383" class="cell" text-anchor="middle">Model D</text>
      <text x="508" y="383" class="num" text-anchor="middle">25.8</text><text x="642" y="383" class="num" text-anchor="middle">38.9</text><text x="776" y="383" class="num red" text-anchor="middle">53.6</text>
      <text x="954" y="383" class="num" text-anchor="middle">0.797</text><text x="1088" y="383" class="num" text-anchor="middle">0.689</text><text x="1222" y="383" class="num red" text-anchor="middle">0.512</text>
      <text x="1382" y="383" class="num" text-anchor="middle">42.6</text><text x="1462" y="383" class="num" text-anchor="middle">81.3</text>

      <text x="52" y="455" class="cell" text-anchor="middle">5</text><text x="180" y="455" class="cell" text-anchor="middle">Model E</text>
      <text x="508" y="455" class="num" text-anchor="middle">27.1</text><text x="642" y="455" class="num" text-anchor="middle">41.0</text><text x="776" y="455" class="num red" text-anchor="middle">56.8</text>
      <text x="954" y="455" class="num" text-anchor="middle">0.781</text><text x="1088" y="455" class="num" text-anchor="middle">0.653</text><text x="1222" y="455" class="num red" text-anchor="middle">0.489</text>
      <text x="1382" y="455" class="num" text-anchor="middle">6.3</text><text x="1462" y="455" class="num" text-anchor="middle">12.7</text>

      <text x="52" y="527" class="cell" text-anchor="middle">6</text><text x="180" y="527" class="cell" text-anchor="middle">Model F</text>
      <text x="508" y="527" class="num" text-anchor="middle">26.4</text><text x="642" y="527" class="num" text-anchor="middle">42.3</text><text x="776" y="527" class="num red" text-anchor="middle">59.7</text>
      <text x="954" y="527" class="num" text-anchor="middle">0.768</text><text x="1088" y="527" class="num" text-anchor="middle">0.628</text><text x="1222" y="527" class="num red" text-anchor="middle">0.456</text>
      <text x="1382" y="527" class="num" text-anchor="middle">18.2</text><text x="1462" y="527" class="num" text-anchor="middle">29.6</text>
    </g>
  </g>

  <g transform="translate(86 764)">
    <rect x="0" y="0" width="1490" height="96" rx="8" fill="#f9fafb" stroke="#d8dbe0"/>
    <g transform="translate(42 28)" fill="none" stroke="#1b3b6f" stroke-width="4" stroke-linecap="round">
      <line x1="0" y1="34" x2="0" y2="46"/>
      <line x1="10" y1="24" x2="10" y2="46"/>
      <line x1="20" y1="12" x2="20" y2="46"/>
      <line x1="30" y1="2" x2="30" y2="46"/>
    </g>
    <text x="100" y="58" class="head">Ranked by</text>
    <text x="220" y="58" class="head red">cross-dataset generalization</text>

    <g transform="translate(700 18)" fill="none" stroke="#1b3b6f" stroke-width="2.5" stroke-linejoin="round" stroke-linecap="round">
      <path d="M10,36 L32,16 L54,36 M16,36 V66 H48 V36 M27,66 V50 H38 V66"/>
    </g>
    <text x="780" y="44" class="head">T1</text>
    <text x="780" y="70" class="sub">same home</text>
    <line x1="890" y1="48" x2="974" y2="48" stroke="#1b3b6f" stroke-width="2.5"/>
    <path d="M964,38 L978,48 L964,58" fill="none" stroke="#1b3b6f" stroke-width="2.5" stroke-linecap="round" stroke-linejoin="round"/>

    <g transform="translate(1010 18)" fill="none" stroke="#1b3b6f" stroke-width="2.5" stroke-linejoin="round" stroke-linecap="round">
      <path d="M4,38 L24,20 L44,38 M10,38 V66 H38 V38 M20,66 V52 H28 V66" opacity=".55"/>
      <path d="M44,36 L66,16 L88,36 M50,36 V66 H82 V36 M61,66 V50 H72 V66"/>
    </g>
    <text x="1118" y="44" class="head">T2</text>
    <text x="1118" y="70" class="sub">new home</text>
    <line x1="1228" y1="48" x2="1300" y2="48" stroke="#1b3b6f" stroke-width="2.5"/>
    <path d="M1290,38 L1304,48 L1290,58" fill="none" stroke="#1b3b6f" stroke-width="2.5" stroke-linecap="round" stroke-linejoin="round"/>

    <g transform="translate(1332 18)" fill="none" stroke="#c44536" stroke-width="2.7">
      <ellipse cx="28" cy="24" rx="22" ry="9"/>
      <path d="M6,24 V60 C6,66 16,71 28,71 C40,71 50,66 50,60 V24"/>
      <path d="M6,42 C6,48 16,53 28,53 C40,53 50,48 50,42"/>
    </g>
    <text x="1400" y="44" class="head red">T3</text>
    <text x="1400" y="70" class="sub red">new dataset</text>
  </g>
</g>
</svg>
