<svg xmlns="http://www.w3.org/2000/svg" xmlns:xlink="http://www.w3.org/1999/xlink" xmlns:inkscape="http://www.inkscape.org/namespaces/inkscape" version="1.1" width="501.961" height="130.1" viewBox="0 0 501.961 130.1">
<defs>
<clipPath id="clip_1">
<path transform="matrix(1,0,0,-1,-.000000000000000166533,294.57)" d="M40.00311 169.84265H244.85665V290.97038H40.00311Z"/>
</clipPath>
<clipPath id="clip_2">
<path transform="matrix(1,0,0,-1,-.000000000000000166533,294.57)" d="M40.00311 169.84265H244.85665V290.97038H40.00311Z"/>
</clipPath>
<clipPath id="clip_3">
<path transform="matrix(1,0,0,-1,-.000000000000000166533,294.57)" d="M287.1431 169.84265H491.99665V290.97038H287.1431Z"/>
</clipPath>
<clipPath id="clip_4">
<path transform="matrix(1,0,0,-1,-.000000000000000166533,294.57)" d="M287.1431 169.84265H491.99665V290.97038H287.1431Z"/>
</clipPath>
<clipPath id="clip_5">
<path transform="matrix(1,0,0,-1,-.000000000000000166533,294.57)" d="M40.00311 35.99492H244.85665V157.12265H40.00311Z"/>
</clipPath>
<clipPath id="clip_6">
<path transform="matrix(1,0,0,-1,-.000000000000000166533,294.57)" d="M40.00311 35.99492H244.85665V157.12265H40.00311Z"/>
</clipPath>
<clipPath id="clip_7">
<path transform="matrix(1,0,0,-1,-.000000000000000166533,294.57)" d="M287.1431 35.99492H491.99665V157.12265H287.1431Z"/>
</clipPath>
<clipPath id="clip_8">
<path transform="matrix(1,0,0,-1,-.000000000000000166533,294.57)" d="M287.1431 35.99492H491.99665V157.12265H287.1431Z"/>
</clipPath>
</defs>
<path transform="matrix(1,0,0,-1,-.000000000000000166533,294.57)" d="M0 0H505.20085V294.57038H0Z" fill="#ffffff"/>
<path transform="matrix(1,0,0,-1,-.000000000000000166533,294.57)" d="M40.003107 169.84265H244.85663V290.97038H40.003107Z" fill="#ffffff"/>
<path transform="matrix(1,0,0,-1,-.000000000000000166533,294.57)" d="M49.314634 169.84265V166.84265"/>
<path transform="matrix(1,0,0,-1,-.000000000000000166533,294.57)" stroke-width=".8" stroke-linecap="butt" stroke-linejoin="round" fill="none" stroke="#000000" d="M49.314634 169.84265V166.84265"/>
<path transform="matrix(1,0,0,-1,-.000000000000000166533,294.57)" d="M72.59748 169.84265V166.84265"/>
<path transform="matrix(1,0,0,-1,-.000000000000000166533,294.57)" stroke-width=".8" stroke-linecap="butt" stroke-linejoin="round" fill="none" stroke="#000000" d="M72.59748 169.84265V166.84265"/>
<path transform="matrix(1,0,0,-1,-.000000000000000166533,294.57)" d="M95.88033 169.84265V166.84265"/>
<path transform="matrix(1,0,0,-1,-.000000000000000166533,294.57)" stroke-width=".8" stroke-linecap="butt" stroke-linejoin="round" fill="none" stroke="#000000" d="M95.88033 169.84265V166.84265"/>
<path transform="matrix(1,0,0,-1,-.000000000000000166533,294.57)" d="M119.163188 169.84265V166.84265"/>
<path transform="matrix(1,0,0,-1,-.000000000000000166533,294.57)" stroke-width=".8" stroke-linecap="butt" stroke-linejoin="round" fill="none" stroke="#000000" d="M119.163188 169.84265V166.84265"/>
<path transform="matrix(1,0,0,-1,-.000000000000000166533,294.57)" d="M142.44605 169.84265V166.84265"/>
<path transform="matrix(1,0,0,-1,-.000000000000000166533,294.57)" stroke-width=".8" stroke-linecap="butt" stroke-linejoin="round" fill="none" stroke="#000000" d="M142.44605 169.84265V166.84265"/>
<path transform="matrix(1,0,0,-1,-.000000000000000166533,294.57)" d="M165.7289 169.84265V166.84265"/>
<path transform="matrix(1,0,0,-1,-.000000000000000166533,294.57)" stroke-width=".8" stroke-linecap="butt" stroke-linejoin="round" fill="none" stroke="#000000" d="M165.7289 169.84265V166.84265"/>
<path transform="matrix(1,0,0,-1,-.000000000000000166533,294.57)" d="M189.01175 169.84265V166.84265"/>
<path transform="matrix(1,0,0,-1,-.000000000000000166533,294.57)" stroke-width=".8" stroke-linecap="butt" stroke-linejoin="round" fill="none" stroke="#000000" d="M189.01175 169.84265V166.84265"/>
<path transform="matrix(1,0,0,-1,-.000000000000000166533,294.57)" d="M212.2946 169.84265V166.84265"/>
<path transform="matrix(1,0,0,-1,-.000000000000000166533,294.57)" stroke-width=".8" stroke-linecap="butt" stroke-linejoin="round" fill="none" stroke="#000000" d="M212.2946 169.84265V166.84265"/>
<path transform="matrix(1,0,0,-1,-.000000000000000166533,294.57)" d="M235.57746 169.84265V166.84265"/>
<path transform="matrix(1,0,0,-1,-.000000000000000166533,294.57)" stroke-width=".8" stroke-linecap="butt" stroke-linejoin="round" fill="none" stroke="#000000" d="M235.57746 169.84265V166.84265"/>
<path transform="matrix(1,0,0,-1,-.000000000000000166533,294.57)" d="M40.003107 175.34845H37.003107"/>
<path transform="matrix(1,0,0,-1,-.000000000000000166533,294.57)" stroke-width=".8" stroke-linecap="butt" stroke-linejoin="round" fill="none" stroke="#000000" d="M40.003107 175.34845H37.003107"/>
<text xml:space="preserve" transform="matrix(1 0 -0 1 -.000000000000000166533 294.57)" font-size="7.970112" font-family="Computer Modern"><tspan y="-172.58106" x="29.268925">0</tspan></text>
<path transform="matrix(1,0,0,-1,-.000000000000000166533,294.57)" d="M40.003107 194.02011H37.003107"/>
<path transform="matrix(1,0,0,-1,-.000000000000000166533,294.57)" stroke-width=".8" stroke-linecap="butt" stroke-linejoin="round" fill="none" stroke="#000000" d="M40.003107 194.02011H37.003107"/>
<text xml:space="preserve" transform="matrix(1 0 -0 1 -.000000000000000166533 294.57)" font-size="7.970112" font-family="Computer Modern"><tspan y="-191.25272" x="20.800559 25.032689 29.264819">200</tspan></text>
<path transform="matrix(1,0,0,-1,-.000000000000000166533,294.57)" d="M40.003107 212.69178H37.003107"/>
<path transform="matrix(1,0,0,-1,-.000000000000000166533,294.57)" stroke-width=".8" stroke-linecap="butt" stroke-linejoin="round" fill="none" stroke="#000000" d="M40.003107 212.69178H37.003107"/>
<text xml:space="preserve" transform="matrix(1 0 -0 1 -.000000000000000166533 294.57)" font-size="7.970112" font-family="Computer Modern"><tspan y="-209.92436" x="20.800559 25.032689 29.264819">400</tspan></text>
<path transform="matrix(1,0,0,-1,-.000000000000000166533,294.57)" d="M40.003107 231.36344H37.003107"/>
<path transform="matrix(1,0,0,-1,-.000000000000000166533,294.57)" stroke-width=".8" stroke-linecap="butt" stroke-linejoin="round" fill="none" stroke="#000000" d="M40.003107 231.36344H37.003107"/>
<text xml:space="preserve" transform="matrix(1 0 -0 1 -.000000000000000166533 294.57)" font-size="7.970112" font-family="Computer Modern"><tspan y="-228.59603" x="20.800559 25.032689 29.264819">600</tspan></text>
<path transform="matrix(1,0,0,-1,-.000000000000000166533,294.57)" d="M40.003107 250.0351H37.003107"/>
<path transform="matrix(1,0,0,-1,-.000000000000000166533,294.57)" stroke-width=".8" stroke-linecap="butt" stroke-linejoin="round" fill="none" stroke="#000000" d="M40.003107 250.0351H37.003107"/>
<text xml:space="preserve" transform="matrix(1 0 -0 1 -.000000000000000166533 294.57)" font-size="7.970112" font-family="Computer Modern"><tspan y="-247.26769" x="20.800559 25.032689 29.264819">800</tspan></text>
<path transform="matrix(1,0,0,-1,-.000000000000000166533,294.57)" d="M40.003107 268.70677H37.003107"/>
<path transform="matrix(1,0,0,-1,-.000000000000000166533,294.57)" stroke-width=".8" stroke-linecap="butt" stroke-linejoin="round" fill="none" stroke="#000000" d="M40.003107 268.70677H37.003107"/>
<text xml:space="preserve" transform="matrix(1 0 -0 1 -.000000000000000166533 294.57)" font-size="7.970112" font-family="Computer Modern"><tspan y="-265.93937" x="16.566376 20.798506 25.030636 29.262766">1000</tspan></text>
<path transform="matrix(1,0,0,-1,-.000000000000000166533,294.57)" d="M40.003107 287.37843H37.003107"/>
<path transform="matrix(1,0,0,-1,-.000000000000000166533,294.57)" stroke-width=".8" stroke-linecap="butt" stroke-linejoin="round" fill="none" stroke="#000000" d="M40.003107 287.37843H37.003107"/>
<text xml:space="preserve" transform="matrix(1 0 -0 1 -.000000000000000166533 294.57)" font-size="7.970112" font-family="Computer Modern"><tspan y="-284.61103" x="16.566376 20.798506 25.030636 29.262766">1200</tspan></text>
<text xml:space="preserve" transform="matrix(0 -1 1 0 -.000000000000000166533 294.57)" font-size="8.966376" font-family="Computer Modern"><tspan y="10.324782" x="208.31694 214.32846 218.67223 225.06929 229.16693 235.8432 239.42079 248.88928">Power(W)</tspan></text>
<g clip-path="url(#clip_1)">
<path transform="matrix(1,0,0,-1,-.000000000000000166533,294.57)" stroke-width="1" stroke-linecap="square" stroke-linejoin="round" fill="none" stroke="#0000ff" stroke-opacity=".9" d="M49.314634 175.53517H69.072719L69.13739 285.20783 69.16973 230.21979 69.29908 175.53517H81.55492L81.58725 175.70322 81.651927 284.93244 81.684268 197.21297 81.7166 175.53517 81.78127 177.21562 81.84595 281.5155 81.91062 227.20899 81.94296 175.53517 82.00764 187.27031 82.03997 278.06126 82.104648 256.04737 82.23399 175.53517 82.266338 176.54344 82.298679 276.1754 82.39568 273.61326 82.428028 253.76943 82.4927 271.6942 82.52503 271.53553 82.62205 175.53517 82.65438 175.87126 82.719058 272.6278 82.751399 272.50645 82.880748 175.53517H113.7952L113.85987 284.03825 113.892208 216.006 114.02156 175.53517H162.17179L162.20413 284.511 162.2688 175.93195 162.39815 175.53517H206.3122L206.37688 285.46458 206.40921 229.753 206.53856 175.53517H235.5451"/>
</g>
<g clip-path="url(#clip_2)">
<path transform="matrix(1,0,0,-1,-.000000000000000166533,294.57)" stroke-width="1" stroke-linecap="square" stroke-linejoin="round" fill="none" stroke="#ffa500" stroke-opacity=".8" d="M49.314634 175.34845H56.913896L56.94623 175.52085 57.010908 175.34845H65.38627L65.45094 181.19687 65.48328 175.34845H75.055118L75.11979 177.47487 75.15213 175.34845H81.26388L81.29622 175.77286 81.36089 175.34845H85.726428L85.7911 175.94332 85.855777 202.14084 85.88811 175.34845 85.92045 175.44779 85.98512 175.34845H98.176288L98.20862 175.48426 98.27329 175.34845 112.53404 175.39046 112.566379 179.42122 112.59872 175.34845H112.63106 142.64006L142.6724 176.11365 142.73708 175.34845H159.64948L159.68183 175.89687 159.74649 175.34845 175.04204 175.44824 175.07437 178.06224 175.13904 175.34845H180.70107L180.7334 176.09978 180.79807 175.34845H189.6585L189.69083 175.99155 189.75551 175.34845H205.0187L205.05104 181.2643 205.11573 175.34845H217.46857L217.5009 176.95272 217.56557 175.34845H227.71949L227.75182 177.79811 227.8165 175.34845H235.5451"/>
</g>
<path transform="matrix(1,0,0,-1,-.000000000000000166533,294.57)" stroke-width=".8" stroke-linecap="square" stroke-miterlimit="10" stroke-linejoin="miter" fill="none" stroke="#000000" d="M40.003107 169.84265V290.97038"/>
<path transform="matrix(1,0,0,-1,-.000000000000000166533,294.57)" stroke-width=".8" stroke-linecap="square" stroke-miterlimit="10" stroke-linejoin="miter" fill="none" stroke="#000000" d="M40.003107 169.84265H244.85663"/>
<path transform="matrix(1,0,0,-1,-.000000000000000166533,294.57)" stroke-width="1" stroke-linecap="square" stroke-linejoin="round" fill="none" stroke="#0000ff" stroke-opacity=".9" d="M162.72925 280.97038H170.72925 178.72925"/>
<text xml:space="preserve" transform="matrix(1 0 -0 1 -.000000000000000166533 294.57)" font-size="7.970112" font-family="Computer Modern"><tspan y="-278.17039" x="185.12924 191.76834 195.06797 199.3001 204.00246 208.70482 216.22997 221.63735 224.93697 229.63933 232.93099">GroundTruth</tspan></text>
<path transform="matrix(1,0,0,-1,-.000000000000000166533,294.57)" stroke-width="1" stroke-linecap="square" stroke-linejoin="round" fill="none" stroke="#ffa500" stroke-opacity=".8" d="M162.72925 269.82063H170.72925 178.72925"/>
<text xml:space="preserve" transform="matrix(1 0 -0 1 -.000000000000000166533 294.57)" font-size="7.970112" font-family="Computer Modern"><tspan y="-267.02064" x="185.12924 191.46549 194.51007 199.79425 207.5412 212.35878 216.59091 219.89054 226.94408 230.70597">NILMFormer</tspan></text>
<path transform="matrix(1,0,0,-1,-.000000000000000166533,294.57)" d="M287.1431 169.84265H491.99665V290.97038H287.1431Z" fill="#ffffff"/>
<path transform="matrix(1,0,0,-1,-.000000000000000166533,294.57)" d="M296.45463 169.84265V166.84265"/>
<path transform="matrix(1,0,0,-1,-.000000000000000166533,294.57)" stroke-width=".8" stroke-linecap="butt" stroke-linejoin="round" fill="none" stroke="#000000" d="M296.45463 169.84265V166.84265"/>
<path transform="matrix(1,0,0,-1,-.000000000000000166533,294.57)" d="M319.7375 169.84265V166.84265"/>
<path transform="matrix(1,0,0,-1,-.000000000000000166533,294.57)" stroke-width=".8" stroke-linecap="butt" stroke-linejoin="round" fill="none" stroke="#000000" d="M319.7375 169.84265V166.84265"/>
<path transform="matrix(1,0,0,-1,-.000000000000000166533,294.57)" d="M343.02033 169.84265V166.84265"/>
<path transform="matrix(1,0,0,-1,-.000000000000000166533,294.57)" stroke-width=".8" stroke-linecap="butt" stroke-linejoin="round" fill="none" stroke="#000000" d="M343.02033 169.84265V166.84265"/>
<path transform="matrix(1,0,0,-1,-.000000000000000166533,294.57)" d="M366.3032 169.84265V166.84265"/>
<path transform="matrix(1,0,0,-1,-.000000000000000166533,294.57)" stroke-width=".8" stroke-linecap="butt" stroke-linejoin="round" fill="none" stroke="#000000" d="M366.3032 169.84265V166.84265"/>
<path transform="matrix(1,0,0,-1,-.000000000000000166533,294.57)" d="M389.58604 169.84265V166.84265"/>
<path transform="matrix(1,0,0,-1,-.000000000000000166533,294.57)" stroke-width=".8" stroke-linecap="butt" stroke-linejoin="round" fill="none" stroke="#000000" d="M389.58604 169.84265V166.84265"/>
<path transform="matrix(1,0,0,-1,-.000000000000000166533,294.57)" d="M412.8689 169.84265V166.84265"/>
<path transform="matrix(1,0,0,-1,-.000000000000000166533,294.57)" stroke-width=".8" stroke-linecap="butt" stroke-linejoin="round" fill="none" stroke="#000000" d="M412.8689 169.84265V166.84265"/>
<path transform="matrix(1,0,0,-1,-.000000000000000166533,294.57)" d="M436.15174 169.84265V166.84265"/>
<path transform="matrix(1,0,0,-1,-.000000000000000166533,294.57)" stroke-width=".8" stroke-linecap="butt" stroke-linejoin="round" fill="none" stroke="#000000" d="M436.15174 169.84265V166.84265"/>
<path transform="matrix(1,0,0,-1,-.000000000000000166533,294.57)" d="M459.4346 169.84265V166.84265"/>
<path transform="matrix(1,0,0,-1,-.000000000000000166533,294.57)" stroke-width=".8" stroke-linecap="butt" stroke-linejoin="round" fill="none" stroke="#000000" d="M459.4346 169.84265V166.84265"/>
<path transform="matrix(1,0,0,-1,-.000000000000000166533,294.57)" d="M482.71745 169.84265V166.84265"/>
<path transform="matrix(1,0,0,-1,-.000000000000000166533,294.57)" stroke-width=".8" stroke-linecap="butt" stroke-linejoin="round" fill="none" stroke="#000000" d="M482.71745 169.84265V166.84265"/>
<path transform="matrix(1,0,0,-1,-.000000000000000166533,294.57)" d="M287.1431 175.27068H284.1431"/>
<path transform="matrix(1,0,0,-1,-.000000000000000166533,294.57)" stroke-width=".8" stroke-linecap="butt" stroke-linejoin="round" fill="none" stroke="#000000" d="M287.1431 175.27068H284.1431"/>
<text xml:space="preserve" transform="matrix(1 0 -0 1 -.000000000000000166533 294.57)" font-size="7.970112" font-family="Computer Modern"><tspan y="-172.50327" x="276.40895">0</tspan></text>
<path transform="matrix(1,0,0,-1,-.000000000000000166533,294.57)" d="M287.1431 193.95552H284.1431"/>
<path transform="matrix(1,0,0,-1,-.000000000000000166533,294.57)" stroke-width=".8" stroke-linecap="butt" stroke-linejoin="round" fill="none" stroke="#000000" d="M287.1431 193.95552H284.1431"/>
<text xml:space="preserve" transform="matrix(1 0 -0 1 -.000000000000000166533 294.57)" font-size="7.970112" font-family="Computer Modern"><tspan y="-191.18813" x="267.94056 272.17268 276.4048">200</tspan></text>
<path transform="matrix(1,0,0,-1,-.000000000000000166533,294.57)" d="M287.1431 212.64037H284.1431"/>
<path transform="matrix(1,0,0,-1,-.000000000000000166533,294.57)" stroke-width=".8" stroke-linecap="butt" stroke-linejoin="round" fill="none" stroke="#000000" d="M287.1431 212.64037H284.1431"/>
<text xml:space="preserve" transform="matrix(1 0 -0 1 -.000000000000000166533 294.57)" font-size="7.970112" font-family="Computer Modern"><tspan y="-209.87297" x="267.94056 272.17268 276.4048">400</tspan></text>
<path transform="matrix(1,0,0,-1,-.000000000000000166533,294.57)" d="M287.1431 231.32521H284.1431"/>
<path transform="matrix(1,0,0,-1,-.000000000000000166533,294.57)" stroke-width=".8" stroke-linecap="butt" stroke-linejoin="round" fill="none" stroke="#000000" d="M287.1431 231.32521H284.1431"/>
<text xml:space="preserve" transform="matrix(1 0 -0 1 -.000000000000000166533 294.57)" font-size="7.970112" font-family="Computer Modern"><tspan y="-228.55782" x="267.94056 272.17268 276.4048">600</tspan></text>
<path transform="matrix(1,0,0,-1,-.000000000000000166533,294.57)" d="M287.1431 250.01007H284.1431"/>
<path transform="matrix(1,0,0,-1,-.000000000000000166533,294.57)" stroke-width=".8" stroke-linecap="butt" stroke-linejoin="round" fill="none" stroke="#000000" d="M287.1431 250.01007H284.1431"/>
<text xml:space="preserve" transform="matrix(1 0 -0 1 -.000000000000000166533 294.57)" font-size="7.970112" font-family="Computer Modern"><tspan y="-247.24266" x="267.94056 272.17268 276.4048">800</tspan></text>
<path transform="matrix(1,0,0,-1,-.000000000000000166533,294.57)" d="M287.1431 268.69493H284.1431"/>
<path transform="matrix(1,0,0,-1,-.000000000000000166533,294.57)" stroke-width=".8" stroke-linecap="butt" stroke-linejoin="round" fill="none" stroke="#000000" d="M287.1431 268.69493H284.1431"/>
<text xml:space="preserve" transform="matrix(1 0 -0 1 -.000000000000000166533 294.57)" font-size="7.970112" font-family="Computer Modern"><tspan y="-265.92753" x="263.7064 267.9385 272.17063 276.40275">1000</tspan></text>
<path transform="matrix(1,0,0,-1,-.000000000000000166533,294.57)" d="M287.1431 287.37977H284.1431"/>
<path transform="matrix(1,0,0,-1,-.000000000000000166533,294.57)" stroke-width=".8" stroke-linecap="butt" stroke-linejoin="round" fill="none" stroke="#000000" d="M287.1431 287.37977H284.1431"/>
<text xml:space="preserve" transform="matrix(1 0 -0 1 -.000000000000000166533 294.57)" font-size="7.970112" font-family="Computer Modern"><tspan y="-284.61238" x="263.7064 267.9385 272.17063 276.40275">1200</tspan></text>
<text xml:space="preserve" transform="matrix(0 -1 1 0 -.000000000000000166533 294.57)" font-size="8.966376" font-family="Computer Modern"><tspan y="257.46479" x="208.31694 214.32846 218.67223 225.06929 229.16693 235.8432 239.42079 248.88928">Power(W)</tspan></text>
<g clip-path="url(#clip_3)">
<path transform="matrix(1,0,0,-1,-.000000000000000166533,294.57)" stroke-width="1" stroke-linecap="square" stroke-linejoin="round" fill="none" stroke="#0000ff" stroke-opacity=".9" d="M296.45463 175.45752H316.2127L316.2774 285.20765 316.30973 230.18077 316.4391 175.45752H328.69493L328.72727 175.62569 328.79194 284.93205 328.82426 197.15064 328.8566 175.45752 328.92127 177.13916 328.98597 281.51274 329.05064 227.16783 329.08296 175.45752 329.14765 187.20095 329.17997 278.05604 329.24467 256.02659 329.374 175.45752 329.40635 176.4665 329.43867 276.16886 329.53569 273.6049 329.56803 253.74704 329.6327 271.68449 329.66505 271.52568 329.76206 175.45752 329.79438 175.79386 329.85908 272.61875 329.8914 272.49729 330.02076 175.45752H360.9352L360.99989 284.03724 361.0322 215.95693 361.16157 175.45752H409.3118L409.34413 284.5103 409.4088 175.85457 409.53816 175.45752H453.4522L453.51689 285.46458 453.5492 229.71366 453.67857 175.45752H482.68513"/>
</g>
<g clip-path="url(#clip_4)">
<path transform="matrix(1,0,0,-1,-.000000000000000166533,294.57)" stroke-width="1" stroke-linecap="square" stroke-linejoin="round" fill="none" stroke="#ffa500" stroke-opacity=".8" d="M296.45463 175.44388 297.7158 175.3873 305.73545 175.40695 306.60856 175.41739 310.9741 175.48651 312.6556 175.69525 314.17549 175.6352 315.0809 175.70076 318.9614 175.72376 319.44645 175.52053 320.02854 175.56562 321.06333 175.68056 322.58317 175.74367 323.06825 175.50399 323.58564 175.5221 325.0408 175.78888 326.88404 175.49034 329.374 175.71936 330.89387 175.59183 331.57295 175.5043 334.1599 175.66152 336.0355 175.73172 336.5529 175.5648 337.4583 175.45092 338.8165 175.43779 341.37113 175.70459 341.7915 175.78017 342.24424 175.60515 342.69697 175.4742 343.89344 175.53792 344.47554 175.41172 350.65196 175.36988 352.91557 175.49436 353.49763 175.41262 356.92539 175.43843 364.58934 175.70919 365.23606 175.4627 366.46488 175.36644 372.41496 175.38765 374.61387 175.41004 377.5889 175.38268 378.49436 175.37137 379.20579 175.47487 380.56394 175.80629 381.6634 175.44495 382.7952 175.40352 385.77024 175.46389 386.28764 175.46779 387.2254 175.41709 392.39939 175.3656 393.75755 175.40201 404.3642 175.50684 405.1726 175.74169 406.14274 175.53466 406.7248 175.623 407.43623 175.55916 409.15013 175.81208 409.6675 175.62815 410.28193 175.5647 411.09034 175.75182 411.4784 175.75279 412.44853 175.44599 425.8038 175.39235 428.00276 175.52809 428.9082 175.73365 430.07234 175.46657 430.97779 175.42554 435.7637 175.401 437.6716 175.48009 441.16404 175.37737 443.97737 175.45757 444.46244 175.48264 445.46488 175.40192 449.95979 175.39084 451.7383 175.6499 452.12638 175.72148 452.99949 175.58864 454.487 175.6895 455.32777 175.45493 456.52424 175.4217 458.07643 175.56194 458.78785 175.75264 460.66343 175.38532 462.92704 175.37853 464.7379 175.42699 466.71049 175.40232 473.5013 175.58954 473.9864 175.69635 474.7948 175.61658 477.76985 175.42678 478.7723 175.48763 479.5484 175.65604 480.38917 175.4347 482.68513 175.44025"/>
</g>
<path transform="matrix(1,0,0,-1,-.000000000000000166533,294.57)" stroke-width=".8" stroke-linecap="square" stroke-miterlimit="10" stroke-linejoin="miter" fill="none" stroke="#000000" d="M287.1431 169.84265V290.97038"/>
<path transform="matrix(1,0,0,-1,-.000000000000000166533,294.57)" stroke-width=".8" stroke-linecap="square" stroke-miterlimit="10" stroke-linejoin="miter" fill="none" stroke="#000000" d="M287.1431 169.84265H491.99665"/>
<path transform="matrix(1,0,0,-1,-.000000000000000166533,294.57)" stroke-width="1" stroke-linecap="square" stroke-linejoin="round" fill="none" stroke="#0000ff" stroke-opacity=".9" d="M409.86924 280.97038H417.86924 425.86924"/>
<text xml:space="preserve" transform="matrix(1 0 -0 1 -.000000000000000166533 294.57)" font-size="7.970112" font-family="Computer Modern"><tspan y="-278.17039" x="432.26927 438.90837 442.20799 446.4401 451.14247 455.84483 463.36997 468.77735 472.07698 476.77934 480.07099">GroundTruth</tspan></text>
<path transform="matrix(1,0,0,-1,-.000000000000000166533,294.57)" stroke-width="1" stroke-linecap="square" stroke-linejoin="round" fill="none" stroke="#ffa500" stroke-opacity=".8" d="M409.86924 269.82063H417.86924 425.86924"/>
<text xml:space="preserve" transform="matrix(1 0 -0 1 -.000000000000000166533 294.57)" font-size="7.970112" font-family="Computer Modern"><tspan y="-267.02064" x="432.26927 436.97163 440.73353 445.19679 449.4289 454.13127 457.89317">Seq2Seq</tspan></text>
<path transform="matrix(1,0,0,-1,-.000000000000000166533,294.57)" d="M40.003107 35.99492H244.85663V157.12265H40.003107Z" fill="#ffffff"/>
<path transform="matrix(1,0,0,-1,-.000000000000000166533,294.57)" d="M49.314634 35.99492V32.99492"/>
<path transform="matrix(1,0,0,-1,-.000000000000000166533,294.57)" stroke-width=".8" stroke-linecap="butt" stroke-linejoin="round" fill="none" stroke="#000000" d="M49.314634 35.99492V32.99492"/>
<text xml:space="preserve" transform="matrix(.8660254 -.5 .5 .8660254 -.000000000000000166533 294.57)" font-size="7.970112" font-family="Computer Modern"><tspan y="12.3193249" x="31.221934 35.454065">20</tspan><tspan y="12.319324" x="39.68619">1</tspan><tspan y="12.319323" x="43.91832">4</tspan><tspan y="12.319322" x="48.150449 50.97187 55.203996">-05</tspan><tspan y="12.319321" x="59.436124 62.257547">-0</tspan><tspan y="12.319323" x="66.48967">1</tspan></text>
<path transform="matrix(1,0,0,-1,-.000000000000000166533,294.57)" d="M72.59748 35.99492V32.99492"/>
<path transform="matrix(1,0,0,-1,-.000000000000000166533,294.57)" stroke-width=".8" stroke-linecap="butt" stroke-linejoin="round" fill="none" stroke="#000000" d="M72.59748 35.99492V32.99492"/>
<path transform="matrix(1,0,0,-1,-.000000000000000166533,294.57)" d="M95.88033 35.99492V32.99492"/>
<path transform="matrix(1,0,0,-1,-.000000000000000166533,294.57)" stroke-width=".8" stroke-linecap="butt" stroke-linejoin="round" fill="none" stroke="#000000" d="M95.88033 35.99492V32.99492"/>
<text xml:space="preserve" transform="matrix(.8660254 -.5 .5 .8660254 -.000000000000000166533 294.57)" font-size="7.970112" font-family="Computer Modern"><tspan y="35.602174" x="71.54901 75.78114 80.013278 84.2454 88.47752 91.29895 95.531078 99.7632 102.584629 106.81675">2014-05-02</tspan></text>
<path transform="matrix(1,0,0,-1,-.000000000000000166533,294.57)" d="M119.163188 35.99492V32.99492"/>
<path transform="matrix(1,0,0,-1,-.000000000000000166533,294.57)" stroke-width=".8" stroke-linecap="butt" stroke-linejoin="round" fill="none" stroke="#000000" d="M119.163188 35.99492V32.99492"/>
<path transform="matrix(1,0,0,-1,-.000000000000000166533,294.57)" d="M142.44605 35.99492V32.99492"/>
<path transform="matrix(1,0,0,-1,-.000000000000000166533,294.57)" stroke-width=".8" stroke-linecap="butt" stroke-linejoin="round" fill="none" stroke="#000000" d="M142.44605 35.99492V32.99492"/>
<text xml:space="preserve" transform="matrix(.8660254 -.5 .5 .8660254 -.000000000000000166533 294.57)" font-size="7.970112" font-family="Computer Modern"><tspan y="58.885026" x="111.8761">2</tspan><tspan y="58.88503" x="116.10823 120.34036 124.57249 128.80461 131.62604 135.85817">014-05</tspan><tspan y="58.885026" x="140.0903 142.91172">-0</tspan><tspan y="58.88503" x="147.14385">3</tspan></text>
<path transform="matrix(1,0,0,-1,-.000000000000000166533,294.57)" d="M165.7289 35.99492V32.99492"/>
<path transform="matrix(1,0,0,-1,-.000000000000000166533,294.57)" stroke-width=".8" stroke-linecap="butt" stroke-linejoin="round" fill="none" stroke="#000000" d="M165.7289 35.99492V32.99492"/>
<path transform="matrix(1,0,0,-1,-.000000000000000166533,294.57)" d="M189.01175 35.99492V32.99492"/>
<path transform="matrix(1,0,0,-1,-.000000000000000166533,294.57)" stroke-width=".8" stroke-linecap="butt" stroke-linejoin="round" fill="none" stroke="#000000" d="M189.01175 35.99492V32.99492"/>
<text xml:space="preserve" transform="matrix(.8660254 -.5 .5 .8660254 -.000000000000000166533 294.57)" font-size="7.970112" font-family="Computer Modern"><tspan y="82.167888" x="152.20317 156.43532 160.66745">201</tspan><tspan y="82.16788" x="164.89957 169.1317 171.95311 176.18526 180.41738 183.2388 187.47092">4-05-04</tspan></text>
<path transform="matrix(1,0,0,-1,-.000000000000000166533,294.57)" d="M212.2946 35.99492V32.99492"/>
<path transform="matrix(1,0,0,-1,-.000000000000000166533,294.57)" stroke-width=".8" stroke-linecap="butt" stroke-linejoin="round" fill="none" stroke="#000000" d="M212.2946 35.99492V32.99492"/>
<path transform="matrix(1,0,0,-1,-.000000000000000166533,294.57)" d="M235.57746 35.99492V32.99492"/>
<path transform="matrix(1,0,0,-1,-.000000000000000166533,294.57)" stroke-width=".8" stroke-linecap="butt" stroke-linejoin="round" fill="none" stroke="#000000" d="M235.57746 35.99492V32.99492"/>
<text xml:space="preserve" transform="matrix(.8660254 -.5 .5 .8660254 -.000000000000000166533 294.57)" font-size="7.970112" font-family="Computer Modern"><tspan y="105.45074" x="192.53026 196.7624 200.99452">201</tspan><tspan y="105.45073" x="205.22666 209.45877 212.2802 216.51233 220.74446 223.56587 227.798">4-05-05</tspan></text>
<path transform="matrix(1,0,0,-1,-.000000000000000166533,294.57)" d="M40.003107 41.473024H37.003107"/>
<path transform="matrix(1,0,0,-1,-.000000000000000166533,294.57)" stroke-width=".8" stroke-linecap="butt" stroke-linejoin="round" fill="none" stroke="#000000" d="M40.003107 41.473024H37.003107"/>
<text xml:space="preserve" transform="matrix(1 0 -0 1 -.000000000000000166533 294.57)" font-size="7.970112" font-family="Computer Modern"><tspan y="-38.705625" x="29.268925">0</tspan></text>
<path transform="matrix(1,0,0,-1,-.000000000000000166533,294.57)" d="M40.003107 60.14938H37.003107"/>
<path transform="matrix(1,0,0,-1,-.000000000000000166533,294.57)" stroke-width=".8" stroke-linecap="butt" stroke-linejoin="round" fill="none" stroke="#000000" d="M40.003107 60.14938H37.003107"/>
<text xml:space="preserve" transform="matrix(1 0 -0 1 -.000000000000000166533 294.57)" font-size="7.970112" font-family="Computer Modern"><tspan y="-57.38198" x="20.800559 25.032689 29.264819">200</tspan></text>
<path transform="matrix(1,0,0,-1,-.000000000000000166533,294.57)" d="M40.003107 78.82574H37.003107"/>
<path transform="matrix(1,0,0,-1,-.000000000000000166533,294.57)" stroke-width=".8" stroke-linecap="butt" stroke-linejoin="round" fill="none" stroke="#000000" d="M40.003107 78.82574H37.003107"/>
<text xml:space="preserve" transform="matrix(1 0 -0 1 -.000000000000000166533 294.57)" font-size="7.970112" font-family="Computer Modern"><tspan y="-76.058338" x="20.800559 25.032689 29.264819">400</tspan></text>
<path transform="matrix(1,0,0,-1,-.000000000000000166533,294.57)" d="M40.003107 97.50209H37.003107"/>
<path transform="matrix(1,0,0,-1,-.000000000000000166533,294.57)" stroke-width=".8" stroke-linecap="butt" stroke-linejoin="round" fill="none" stroke="#000000" d="M40.003107 97.50209H37.003107"/>
<text xml:space="preserve" transform="matrix(1 0 -0 1 -.000000000000000166533 294.57)" font-size="7.970112" font-family="Computer Modern"><tspan y="-94.734699" x="20.800559 25.032689 29.264819">600</tspan></text>
<path transform="matrix(1,0,0,-1,-.000000000000000166533,294.57)" d="M40.003107 116.17845H37.003107"/>
<path transform="matrix(1,0,0,-1,-.000000000000000166533,294.57)" stroke-width=".8" stroke-linecap="butt" stroke-linejoin="round" fill="none" stroke="#000000" d="M40.003107 116.17845H37.003107"/>
<text xml:space="preserve" transform="matrix(1 0 -0 1 -.000000000000000166533 294.57)" font-size="7.970112" font-family="Computer Modern"><tspan y="-113.41105" x="20.800559 25.032689 29.264819">800</tspan></text>
<path transform="matrix(1,0,0,-1,-.000000000000000166533,294.57)" d="M40.003107 134.85482H37.003107"/>
<path transform="matrix(1,0,0,-1,-.000000000000000166533,294.57)" stroke-width=".8" stroke-linecap="butt" stroke-linejoin="round" fill="none" stroke="#000000" d="M40.003107 134.85482H37.003107"/>
<text xml:space="preserve" transform="matrix(1 0 -0 1 -.000000000000000166533 294.57)" font-size="7.970112" font-family="Computer Modern"><tspan y="-132.0874" x="16.566376 20.798506 25.030636 29.262766">1000</tspan></text>
<path transform="matrix(1,0,0,-1,-.000000000000000166533,294.57)" d="M40.003107 153.53116H37.003107"/>
<path transform="matrix(1,0,0,-1,-.000000000000000166533,294.57)" stroke-width=".8" stroke-linecap="butt" stroke-linejoin="round" fill="none" stroke="#000000" d="M40.003107 153.53116H37.003107"/>
<text xml:space="preserve" transform="matrix(1 0 -0 1 -.000000000000000166533 294.57)" font-size="7.970112" font-family="Computer Modern"><tspan y="-150.76377" x="16.566376 20.798506 25.030636 29.262766">1200</tspan></text>
<text xml:space="preserve" transform="matrix(0 -1 1 0 -.000000000000000166533 294.57)" font-size="8.966376" font-family="Computer Modern"><tspan y="10.324782" x="74.469219 80.48073 84.8245 91.22157 95.31921 101.99548 105.57307 115.04156">Power(W)</tspan></text>
<g clip-path="url(#clip_5)">
<path transform="matrix(1,0,0,-1,-.000000000000000166533,294.57)" stroke-width="1" stroke-linecap="square" stroke-linejoin="round" fill="none" stroke="#0000ff" stroke-opacity=".9" d="M49.314634 41.659788H69.072719L69.13739 151.36005 69.16973 96.35817 69.29908 41.659788H81.55492L81.58725 41.827875 81.651927 151.08457 81.684268 63.343038 81.7166 41.659788 81.78127 43.34066 81.84595 147.66678 81.91062 93.3466 81.94296 41.659788 82.00764 53.397878 82.03997 144.21166 82.104648 122.19224 82.23399 41.659788 82.266338 42.66831 82.298679 142.32535 82.39568 139.76255 82.428028 119.91373 82.4927 137.84302 82.52503 137.68428 82.62205 41.659788 82.65438 41.99596 82.719058 138.77684 82.751399 138.65544 82.880748 41.659788H113.7952L113.85987 150.19017 113.892208 82.14079 114.02156 41.659788H162.17179L162.20413 150.66301 162.2688 42.05666 162.39815 41.659788H206.3122L206.37688 151.61684 206.40921 95.89126 206.53856 41.659788H235.5451"/>
</g>
<g clip-path="url(#clip_6)">
<path transform="matrix(1,0,0,-1,-.000000000000000166533,294.57)" stroke-width="1" stroke-linecap="square" stroke-linejoin="round" fill="none" stroke="#ffa500" stroke-opacity=".8" d="M49.314634 41.65193 53.583154 41.630575 53.841856 41.639234 54.68262 41.633947 54.941324 41.636198 55.846765 41.634485 63.99576 41.668645 64.0281 41.75992 64.06044 41.586156 64.09277 41.62125 64.25446 41.7312 64.96588 41.892847 65.030559 41.61205 65.0629 41.772359 65.12757 42.175577 65.159908 41.89372 65.22458 41.701799 65.28925 41.748826 65.612628 42.352128 65.644969 42.272657 65.936008 41.626688 66.77677 41.647645 67.32651 41.641263 67.35884 41.80426 67.39118 41.589307 67.423519 41.6084 67.52053 41.76461 67.552867 41.695779 67.61754 41.74497 67.68221 42.452207 67.714557 42.09353 67.81156 41.5707 67.876239 41.770139 67.97325 41.986547 68.037929 41.899976 68.13493 42.09411 68.23195 42.437738 68.26428 42.250646 68.39364 41.757516 68.42597 41.78033 68.52299 42.525217 68.55532 41.98971 68.619998 41.71781 68.68467 41.85597 68.81402 41.996454 68.87869 42.55166 68.91103 42.044378 69.00804 41.774366 69.04038 41.81282 69.29908 42.303194 69.52544 41.71464 69.62245 42.342306 69.65479 41.93504 69.687129 41.695707 69.7518 41.76788 70.13985 42.43369 70.20452 42.33669 70.59257 41.615766 70.62491 41.64998 70.72192 41.909528 70.75426 41.8817 70.81893 41.733964 70.883609 41.78075 71.1423 42.288625 71.174648 42.257974 71.30399 41.640485 73.47059 41.72898 73.53526 42.46843 73.567607 42.06944 73.63228 41.653848 73.69695 41.70241 73.858638 41.91376 73.890979 41.8853 73.92331 41.690885 73.95565 41.813116 74.020328 42.97257 74.052669 42.07837 74.11733 41.644849 74.182018 41.676839 74.31136 41.9596 74.53772 42.422018 74.66707 42.07065 74.86109 41.644475 75.57252 41.637876 76.47796 41.642374 76.5103 41.77955 76.574977 41.605276 76.63965 41.574239 76.769 41.868669 76.83367 41.66984 76.898349 41.705926 77.027698 42.014459 77.18938 42.15593 77.28639 42.111715 77.67444 41.633554 79.77636 41.629659 79.8087 41.555616 79.841037 41.63301 79.90571 41.713884 79.93805 41.69132 80.09974 41.641454 80.455448 41.632413 80.97284 41.775018 81.03751 42.585554 81.069858 41.990224 81.16686 41.64247 81.1992 41.742574 81.32855 41.940694 81.36089 41.854906 81.39323 41.91687 81.4579 42.37466 81.49024 42.096384 81.58725 41.805475 81.61959 41.824758 81.684268 41.856588 81.78127 42.001428 81.84595 41.647367 81.87829 41.750375 82.136989 42.530248 82.23399 41.77317 82.266338 41.77574 82.36334 42.002355 82.52503 42.246427 82.62205 42.128396 82.91308 41.631067 83.333469 41.63788 83.495159 41.661855 85.07968 41.661375 85.112018 41.590028 85.20903 41.6446 85.92045 41.636106 86.308498 41.744909 86.50252 41.798826 86.59953 41.687017 86.63187 41.793317 86.69654 42.331018 86.72888 41.79705 86.761219 41.648897 86.82589 41.709608 86.922908 41.879674 87.14927 42.349634 87.24628 42.24247 87.27862 42.271089 87.375629 42.607309 87.40797 42.37733 87.537319 42.080106 87.666667 42.25372 87.73134 42.520128 87.76367 42.357229 87.82835 42.125867 87.89302 42.168535 88.02237 42.31386 88.151729 41.64011 89.99495 41.63125 91.28844 41.63818 92.12921 41.643545 100.69859 41.63314 111.27289 41.638833 111.30522 41.75366 111.369899 41.611425 111.49925 41.736864 111.531589 41.71719 111.75795 41.76234 111.79028 41.827478 111.822628 41.722105 111.85496 41.72468 112.04898 41.750524 112.145999 42.25613 112.17833 42.06309 112.34002 41.54652 112.53404 41.876707 112.566379 42.114576 112.59872 41.755937 112.63106 41.785158 112.728069 42.107294 112.76041 41.91852 112.79274 41.65115 112.857418 41.831483 112.92209 43.16128 112.95443 42.111486 113.019107 41.646898 113.08378 41.784509 113.14845 41.7184 113.180789 41.827486 113.24546 42.387914 113.2778 42.041917 113.37481 41.71897 113.40715 41.74791 113.69819 42.197076 113.73052 42.15207 113.924549 41.608404 113.95689 41.785127 114.053897 42.132356 114.086238 42.003519 114.15091 41.910459 114.18324 41.93349 114.21558 41.995176 114.28026 41.697347 114.31259 41.94876 114.44194 41.708665 114.506618 41.87467 114.538959 41.929254 114.60363 42.62186 114.63596 42.034166 114.73298 41.683069 114.76531 41.710435 115.08869 42.277776 115.153369 42.16828 115.37972 41.633329 116.12348 41.69744 116.188159 42.02779 116.25283 41.756319 116.349849 41.83596 116.60854 42.276487 116.70555 42.23088 117.061267 41.635286 119.58357 41.636568 120.941738 41.63075 132.13045 41.682008 132.29213 42.04332 132.3568 41.864484 132.42148 41.928113 132.55083 42.266855 132.64785 42.199964 132.80953 42.504987 132.93888 42.365915 133.03589 42.267286 133.29459 41.64583 134.32938 41.63873 135.94625 41.658296 136.33429 41.643629 136.91637 41.654745 137.43376 41.6334 138.30687 41.649618 139.34166 41.63574 139.66504 41.642057 140.2471 41.639848 141.21723 41.642145 142.12267 41.6457 142.28435 41.634866 142.73708 41.640817 147.7817 41.63008 156.93315 41.649816 156.99782 41.690267 157.03017 41.60043 157.0625 41.50774 157.09484 41.681634 157.45055 41.63951 158.90572 41.73107 158.93807 41.567487 159.00273 41.639879 159.13208 41.625337 159.68183 41.63838 160.19922 41.638826 160.23155 41.727815 160.32857 41.686376 160.42557 41.750215 160.49025 42.556924 160.52259 41.988 160.6196 41.653039 160.65193 41.685789 160.8783 42.081155 160.94298 42.375467 161.00765 42.276296 161.26634 41.853548 161.39569 41.625658 161.4927 41.57432 161.52504 41.663694 161.62206 41.66605 161.78374 41.62689 162.20413 41.63439 163.43294 41.573484 163.46529 41.54552 163.56229 41.68118 163.59464 41.656644 163.78865 41.637689 168.41289 41.6302 172.13167 41.631189 173.06946 41.639917 175.30074 41.630819 179.3429 41.640226 179.69861 41.6415 183.80544 41.642774 184.06414 41.65836 184.77556 41.649099 185.1636 41.6371 188.91474 41.637369 189.10875 41.631696 191.27536 41.63708 197.71048 41.63599 198.48657 41.63036 204.08092 41.596349 204.11327 41.54533 204.1456 41.597547 204.27495 41.682775 204.37197 41.570367 204.43663 41.679666 204.50131 41.639169 204.79235 41.633344 205.60077 41.68508 205.63312 41.563859 205.69779 41.669904 206.02117 41.633256 206.0535 41.71754 206.11818 41.606214 206.15052 41.537164 206.18285 41.694669 206.73258 41.654699 220.18489 41.630594 220.41126 41.6562 221.44605 41.633497 226.07028 41.752389 226.13497 41.500726 226.19963 41.66545 226.45833 41.623414 227.36377 41.65112 228.01052 41.641324 231.43828 41.660436 231.50295 41.58872 231.56763 41.686899 232.02034 41.629037 235.38343 41.62661 235.5451 41.627466"/>
</g>
<path transform="matrix(1,0,0,-1,-.000000000000000166533,294.57)" stroke-width=".8" stroke-linecap="square" stroke-miterlimit="10" stroke-linejoin="miter" fill="none" stroke="#000000" d="M40.003107 35.99492V157.12265"/>
<path transform="matrix(1,0,0,-1,-.000000000000000166533,294.57)" stroke-width=".8" stroke-linecap="square" stroke-miterlimit="10" stroke-linejoin="miter" fill="none" stroke="#000000" d="M40.003107 35.99492H244.85663"/>
<path transform="matrix(1,0,0,-1,-.000000000000000166533,294.57)" stroke-width="1" stroke-linecap="square" stroke-linejoin="round" fill="none" stroke="#0000ff" stroke-opacity=".9" d="M162.72925 147.12265H170.72925 178.72925"/>
<text xml:space="preserve" transform="matrix(1 0 -0 1 -.000000000000000166533 294.57)" font-size="7.970112" font-family="Computer Modern"><tspan y="-144.32265" x="185.12924 191.76834 195.06797 199.3001 204.00246 208.70482 216.22997 221.63735 224.93697 229.63933 232.93099">GroundTruth</tspan></text>
<path transform="matrix(1,0,0,-1,-.000000000000000166533,294.57)" stroke-width="1" stroke-linecap="square" stroke-linejoin="round" fill="none" stroke="#ffa500" stroke-opacity=".8" d="M162.72925 135.9729H170.72925 178.72925"/>
<text xml:space="preserve" transform="matrix(1 0 -0 1 -.000000000000000166533 294.57)" font-size="7.970112" font-family="Computer Modern"><tspan y="-133.1729" x="185.12924 191.3539 197.69014">RNN</tspan></text>
<path transform="matrix(1,0,0,-1,-.000000000000000166533,294.57)" d="M287.1431 35.99492H491.99665V157.12265H287.1431Z" fill="#ffffff"/>
<path transform="matrix(1,0,0,-1,-.000000000000000166533,294.57)" d="M296.45463 35.99492V32.99492" fill="#666666"/>
<path transform="matrix(1,0,0,-1,-.000000000000000166533,294.57)" stroke-width=".8" stroke-linecap="butt" stroke-linejoin="round" fill="none" stroke="#666666" d="M296.45463 35.99492V32.99492"/>
<text fill="#666666" xml:space="preserve" transform="matrix(.8660254 -.5 .5 .8660254 -.000000000000000166533 294.57)" font-size="7.970112" font-family="Computer Modern"><tspan y="135.88933" x="245.25145 249.48358 253.71572 257.9478 262.17997 265.00138 269.23353 273.46565 276.28706 280.5192">2014-05-01</tspan></text>
<path transform="matrix(1,0,0,-1,-.000000000000000166533,294.57)" d="M319.7375 35.99492V32.99492" fill="#666666"/>
<path transform="matrix(1,0,0,-1,-.000000000000000166533,294.57)" stroke-width=".8" stroke-linecap="butt" stroke-linejoin="round" fill="none" stroke="#666666" d="M319.7375 35.99492V32.99492"/>
<path transform="matrix(1,0,0,-1,-.000000000000000166533,294.57)" d="M343.02033 35.99492V32.99492" fill="#666666"/>
<path transform="matrix(1,0,0,-1,-.000000000000000166533,294.57)" stroke-width=".8" stroke-linecap="butt" stroke-linejoin="round" fill="none" stroke="#666666" d="M343.02033 35.99492V32.99492"/>
<text fill="#666666" xml:space="preserve" transform="matrix(.8660254 -.5 .5 .8660254 -.000000000000000166533 294.57)" font-size="7.970112" font-family="Computer Modern"><tspan y="159.17218" x="285.57856 289.81065 294.0428 298.2749 302.50706 305.32847 309.5606 313.79273 316.61415 320.84629">2014-05-02</tspan></text>
<path transform="matrix(1,0,0,-1,-.000000000000000166533,294.57)" d="M366.3032 35.99492V32.99492" fill="#666666"/>
<path transform="matrix(1,0,0,-1,-.000000000000000166533,294.57)" stroke-width=".8" stroke-linecap="butt" stroke-linejoin="round" fill="none" stroke="#666666" d="M366.3032 35.99492V32.99492"/>
<path transform="matrix(1,0,0,-1,-.000000000000000166533,294.57)" d="M389.58604 35.99492V32.99492" fill="#666666"/>
<path transform="matrix(1,0,0,-1,-.000000000000000166533,294.57)" stroke-width=".8" stroke-linecap="butt" stroke-linejoin="round" fill="none" stroke="#666666" d="M389.58604 35.99492V32.99492"/>
<text fill="#666666" xml:space="preserve" transform="matrix(.8660254 -.5 .5 .8660254 -.000000000000000166533 294.57)" font-size="7.970112" font-family="Computer Modern"><tspan y="182.45503" x="325.90565 330.13774 334.36988 338.602 342.83415 345.65556 349.8877 354.11979 356.94123 361.17335">2014-05-03</tspan></text>
<path transform="matrix(1,0,0,-1,-.000000000000000166533,294.57)" d="M412.8689 35.99492V32.99492" fill="#666666"/>
<path transform="matrix(1,0,0,-1,-.000000000000000166533,294.57)" stroke-width=".8" stroke-linecap="butt" stroke-linejoin="round" fill="none" stroke="#666666" d="M412.8689 35.99492V32.99492"/>
<path transform="matrix(1,0,0,-1,-.000000000000000166533,294.57)" d="M436.15174 35.99492V32.99492" fill="#666666"/>
<path transform="matrix(1,0,0,-1,-.000000000000000166533,294.57)" stroke-width=".8" stroke-linecap="butt" stroke-linejoin="round" fill="none" stroke="#666666" d="M436.15174 35.99492V32.99492"/>
<text fill="#666666" xml:space="preserve" transform="matrix(.8660254 -.5 .5 .8660254 -.000000000000000166533 294.57)" font-size="7.970112" font-family="Computer Modern"><tspan y="205.73789" x="366.2327 370.4648 374.69697 378.92909 383.1612 385.98265 390.21476 394.44688 397.26829 401.50044">2014-05-04</tspan></text>
<path transform="matrix(1,0,0,-1,-.000000000000000166533,294.57)" d="M459.4346 35.99492V32.99492" fill="#666666"/>
<path transform="matrix(1,0,0,-1,-.000000000000000166533,294.57)" stroke-width=".8" stroke-linecap="butt" stroke-linejoin="round" fill="none" stroke="#666666" d="M459.4346 35.99492V32.99492"/>
<path transform="matrix(1,0,0,-1,-.000000000000000166533,294.57)" d="M482.71745 35.99492V32.99492" fill="#666666"/>
<path transform="matrix(1,0,0,-1,-.000000000000000166533,294.57)" stroke-width=".8" stroke-linecap="butt" stroke-linejoin="round" fill="none" stroke="#666666" d="M482.71745 35.99492V32.99492"/>
<text fill="#666666" xml:space="preserve" transform="matrix(.8660254 -.5 .5 .8660254 -.000000000000000166533 294.57)" font-size="7.970112" font-family="Computer Modern"><tspan y="229.02074" x="406.55979 410.7919 415.02406 419.25617 423.48829 426.3097 430.54185 434.77397 437.59538 441.8275">2014-05-05</tspan></text>
<path transform="matrix(1,0,0,-1,-.000000000000000166533,294.57)" d="M287.1431 41.500726H284.1431" fill="#666666"/>
<path transform="matrix(1,0,0,-1,-.000000000000000166533,294.57)" stroke-width=".8" stroke-linecap="butt" stroke-linejoin="round" fill="none" stroke="#666666" d="M287.1431 41.500726H284.1431"/>
<text fill="#666666" xml:space="preserve" transform="matrix(1 0 -0 1 -.000000000000000166533 294.57)" font-size="7.970112" font-family="Computer Modern"><tspan y="-38.733324" x="276.40895">0</tspan></text>
<path transform="matrix(1,0,0,-1,-.000000000000000166533,294.57)" d="M287.1431 60.172384H284.1431" fill="#666666"/>
<path transform="matrix(1,0,0,-1,-.000000000000000166533,294.57)" stroke-width=".8" stroke-linecap="butt" stroke-linejoin="round" fill="none" stroke="#666666" d="M287.1431 60.172384H284.1431"/>
<text fill="#666666" xml:space="preserve" transform="matrix(1 0 -0 1 -.000000000000000166533 294.57)" font-size="7.970112" font-family="Computer Modern"><tspan y="-57.404985" x="267.94056 272.17268 276.4048">200</tspan></text>
<path transform="matrix(1,0,0,-1,-.000000000000000166533,294.57)" d="M287.1431 78.84405H284.1431" fill="#666666"/>
<path transform="matrix(1,0,0,-1,-.000000000000000166533,294.57)" stroke-width=".8" stroke-linecap="butt" stroke-linejoin="round" fill="none" stroke="#666666" d="M287.1431 78.84405H284.1431"/>
<text fill="#666666" xml:space="preserve" transform="matrix(1 0 -0 1 -.000000000000000166533 294.57)" font-size="7.970112" font-family="Computer Modern"><tspan y="-76.076648" x="267.94056 272.17268 276.4048">400</tspan></text>
<path transform="matrix(1,0,0,-1,-.000000000000000166533,294.57)" d="M287.1431 97.5157H284.1431" fill="#666666"/>
<path transform="matrix(1,0,0,-1,-.000000000000000166533,294.57)" stroke-width=".8" stroke-linecap="butt" stroke-linejoin="round" fill="none" stroke="#666666" d="M287.1431 97.5157H284.1431"/>
<text fill="#666666" xml:space="preserve" transform="matrix(1 0 -0 1 -.000000000000000166533 294.57)" font-size="7.970112" font-family="Computer Modern"><tspan y="-94.74831" x="267.94056 272.17268 276.4048">600</tspan></text>
<path transform="matrix(1,0,0,-1,-.000000000000000166533,294.57)" d="M287.1431 116.18736H284.1431" fill="#666666"/>
<path transform="matrix(1,0,0,-1,-.000000000000000166533,294.57)" stroke-width=".8" stroke-linecap="butt" stroke-linejoin="round" fill="none" stroke="#666666" d="M287.1431 116.18736H284.1431"/>
<text fill="#666666" xml:space="preserve" transform="matrix(1 0 -0 1 -.000000000000000166533 294.57)" font-size="7.970112" font-family="Computer Modern"><tspan y="-113.41996" x="267.94056 272.17268 276.4048">800</tspan></text>
<path transform="matrix(1,0,0,-1,-.000000000000000166533,294.57)" d="M287.1431 134.85903H284.1431" fill="#666666"/>
<path transform="matrix(1,0,0,-1,-.000000000000000166533,294.57)" stroke-width=".8" stroke-linecap="butt" stroke-linejoin="round" fill="none" stroke="#666666" d="M287.1431 134.85903H284.1431"/>
<text fill="#666666" xml:space="preserve" transform="matrix(1 0 -0 1 -.000000000000000166533 294.57)" font-size="7.970112" font-family="Computer Modern"><tspan y="-132.09163" x="263.7064 267.9385 272.17063 276.40275">1000</tspan></text>
<path transform="matrix(1,0,0,-1,-.000000000000000166533,294.57)" d="M287.1431 153.53069H284.1431" fill="#666666"/>
<path transform="matrix(1,0,0,-1,-.000000000000000166533,294.57)" stroke-width=".8" stroke-linecap="butt" stroke-linejoin="round" fill="none" stroke="#666666" d="M287.1431 153.53069H284.1431"/>
<text fill="#666666" xml:space="preserve" transform="matrix(1 0 -0 1 -.000000000000000166533 294.57)" font-size="7.970112" font-family="Computer Modern"><tspan y="-150.76328" x="263.7064 267.9385 272.17063 276.40275">1200</tspan></text>
<text xml:space="preserve" transform="matrix(0 -1 1 0 -.000000000000000166533 294.57)" font-size="8.966376" font-family="Computer Modern"><tspan y="257.46479" x="74.469219 80.48073 84.8245 91.22157 95.31921 101.99548 105.57307 115.04156">Power(W)</tspan></text>
<g clip-path="url(#clip_7)">
<path transform="matrix(1,0,0,-1,-.000000000000000166533,294.57)" stroke-width="1" stroke-linecap="square" stroke-linejoin="round" fill="none" stroke="#0000ff" stroke-opacity=".9" d="M296.45463 41.68744H316.2127L316.2774 151.3601 316.30973 96.37206 316.4391 41.68744H328.69493L328.72727 41.855485 328.79194 151.0847 328.82426 63.36524 328.8566 41.68744 328.92127 43.36789 328.98597 147.66777 329.05064 93.36126 329.08296 41.68744 329.14765 53.422578 329.17997 144.21352 329.24467 122.19964 329.374 41.68744 329.40635 42.69571 329.43867 142.32769 329.53569 139.76552 329.56803 119.9217 329.6327 137.8465 329.66505 137.68779 329.76206 41.68744 329.79438 42.02353 329.85908 138.78008 329.8914 138.6587 330.02076 41.68744H360.9352L360.99989 150.19052 361.0322 82.158267 361.16157 41.68744H409.3118L409.34413 150.66326 409.4088 42.084215 409.53816 41.68744H453.4522L453.51689 151.61684 453.5492 95.90527 453.67857 41.68744H482.68513"/>
</g>
<g clip-path="url(#clip_8)">
<path transform="matrix(1,0,0,-1,-.000000000000000166533,294.57)" stroke-width="1" stroke-linecap="square" stroke-linejoin="round" fill="none" stroke="#ffa500" stroke-opacity=".8" d="M296.45463 41.888109 296.61634 41.500726 296.74568 41.64123 297.06904 41.728708 297.13374 41.500726 297.1984 41.525754 297.32774 41.642126 297.39244 41.500726 297.42475 41.553247 297.4571 41.710367 297.5541 41.643659 297.61878 41.500726 297.68345 41.52587 298.36253 41.72998 298.49189 41.564176 298.52424 41.53167 298.55656 41.608163 298.5889 41.666257 298.62123 41.545068 298.71824 41.51818 298.8799 41.747709 298.9446 41.562078 299.00929 41.6765 299.04164 41.713899 299.07395 41.62926 299.1063 41.6066 299.13865 41.656335 299.23564 41.79524 299.26799 41.75654 299.30033 41.515035 299.39735 41.57692 299.52668 41.674924 299.65605 41.500726 299.78538 41.537424 299.94706 41.80744 299.9794 41.777456 300.10874 41.52877 300.27046 41.5076 300.39979 41.796125 300.43214 41.574125 300.62614 41.555604 300.72315 41.500726 300.8525 41.88032 300.98185 41.815305 301.14353 41.782068 301.2729 41.633237 301.40226 41.75249 301.49925 41.500726 301.59626 41.59195 302.11366 41.621637 302.146 41.644418 302.17835 41.579904 302.30769 41.51542 302.46937 41.61234 302.5017 41.523176 302.53407 41.560064 302.56639 41.6815 302.63105 41.584787 302.82508 41.733755 302.9221 41.500726 302.95445 41.595548 303.08378 41.66221 303.14845 41.619524 303.1808 41.75021 303.21315 41.727746 303.34248 41.500726 303.50416 41.921945 303.7952 41.500726 303.98924 41.550947 304.1509 41.69237 304.3126 41.500726 304.53895 41.93182 304.5713 41.894567 304.70066 41.523218 304.73298 41.61743 304.927 41.97708 304.95936 42.02144 304.99168 41.961317 305.02403 41.82351 305.08869 41.92148 305.15336 42.00375 305.1857 41.92671 305.31507 41.531667 305.37974 41.702306 305.47676 42.035299 305.57377 41.911737 305.92948 41.500726 306.12348 41.775144 306.18818 41.537405 306.25285 41.66123 306.3175 41.638395 306.34986 41.510026 306.38218 41.699384 306.41453 41.679349 306.54386 41.82041 306.5762 41.76768 306.64088 41.633996 306.67323 41.71442 306.70558 41.809347 306.77024 41.702455 306.80256 41.722967 306.93193 41.50467 307.02894 41.639837 307.06126 41.62626 307.15827 41.656766 307.1906 41.53314 307.31999 41.530488 307.4493 41.628824 307.51399 41.662317 307.57868 41.500726 307.99906 41.606378 308.03138 41.6859 308.06373 41.567564 308.19306 41.500726H309.03385L309.16319 41.97973 309.19554 42.01964 309.3249 41.500726H309.42189L309.45423 42.033769 309.5189 41.75458 309.55125 41.644346 309.5836 41.9345 309.68058 41.8377 309.71293 41.75716 309.74528 41.79542 309.90696 42.663015 309.93928 42.067224 310.0363 42.223234 310.06864 41.589586 310.26268 42.36219 310.29499 42.27933 310.392 41.60459 310.42436 41.818105 310.45668 42.326719 310.52137 42.314897 310.55369 41.94923 310.58604 42.384126 310.61839 42.68737 310.6507 42.200536 310.68305 41.551675 310.78007 41.592966 310.81239 41.598726 310.84474 42.31367 310.9094 41.893598 310.94175 41.83262 310.9741 42.23044 311.0064 42.056509 311.03877 41.500726 311.10343 41.526327 311.1681 42.298868 311.20045 41.646539 311.4915 41.500726 311.5238 41.512 311.62083 41.981367 311.65318 41.593454 311.75019 41.64148 311.7825 43.542028 311.8472 42.475088 311.87953 41.908697 311.91188 42.360109 311.97654 49.84675 312.00889 43.193 312.1382 41.500726H312.20289L312.33226 42.703485 312.46159 41.500726H312.52629L312.6233 41.942079 312.75263 41.500726 312.78498 42.01269 312.84965 41.792108 312.882 41.756227 312.9143 41.93334 312.94667 41.500726H313.076L313.173 42.002279 313.20536 41.69743 313.2377 41.954984 313.27003 42.625043 313.3347 41.67977 313.4317 42.474149 313.46406 42.223176 313.4964 41.5694 313.56108 41.944326 313.59339 41.994295 313.7874 41.500726H314.3048L314.3695 41.748544 314.40184 41.637014 314.5635 41.500726 314.9839 41.592557 315.0809 41.570039 315.1456 41.51164 315.21028 41.57532 315.79234 41.513544 315.9217 41.614049 316.08338 41.55947 316.14805 41.50791 316.1804 41.552957 316.2127 41.62944 316.2774 41.565717 316.4391 41.520536 316.4714 41.635858 316.50376 41.50206 316.5361 41.500726 316.92414 41.520994 316.95649 41.64546 317.02116 41.514719 317.18284 41.554529 317.3445 41.668008 317.5709 41.500726 317.6679 41.593458 317.70024 41.541837 317.79725 41.54467 317.8296 41.63713 317.8619 41.516656 317.89427 41.538717 317.95893 41.500726 317.99128 41.590475 318.28233 41.626897 318.41166 41.523229 318.444 41.570299 318.50868 41.500726 318.57334 41.572835 318.89674 41.55451 319.0584 41.576135 320.57826 41.648679 320.6106 41.73421 320.6429 41.581964 320.67527 41.50715 320.7076 41.551584 320.83695 41.907693 320.99864 41.500726 321.06333 41.89323 321.09565 41.803579 321.225 41.516878 321.28968 41.64374 321.32203 41.570455 321.41905 41.500726 321.61305 41.756959 321.6454 41.718816 321.7424 41.500726 321.80708 41.777418 321.87174 41.57441 322.0011 41.583204 322.3568 41.55359 322.48616 41.500726 322.6155 41.767957 322.64784 41.647466 322.71253 41.666818 322.74485 41.5416 322.80955 41.678518 322.84187 41.674768 322.8742 41.500726 322.93888 41.705919 323.1329 41.558916 323.16523 41.755338 323.26225 41.672807 323.58564 41.6424 323.6503 41.54771 323.68266 41.587617 323.7473 41.688535 323.77964 41.608404 323.81199 41.54449 323.87666 41.64794 324.006 41.67235 324.07069 41.500726 324.10304 41.600275 324.13536 41.694887 324.20005 41.558336 324.23237 41.502336 324.2647 41.659406 324.29704 41.58794 324.39405 41.709665 324.4264 41.67188 324.6851 41.61871 324.81446 41.599458 324.9438 41.59579 325.07316 41.512849 325.17015 41.630064 325.20249 41.59438 325.36418 41.500726 325.78456 41.555078 326.04325 41.533 326.1726 41.566106 326.39897 41.502889 326.46366 41.612714 326.52833 41.563676 326.88404 41.500726 327.2074 41.558645 327.49845 41.59996 327.66014 41.50778 327.7248 41.61779 327.78947 41.51863 327.9835 41.716238 328.01585 41.63874 328.04817 41.51412 328.14518 41.575788 328.30686 41.5716 328.43623 41.500726 328.56556 41.632307 328.5979 41.55742 328.63026 41.594896 328.66258 41.500726H328.69493L328.75959 42.14237 328.79194 41.622838 328.92127 41.500726 329.1153 41.721059 329.27699 41.5054 329.471 41.59536 329.53569 41.697546 329.56803 41.54234 330.82917 41.563566 330.8615 41.700998 330.92619 41.631246 331.18489 41.500726 331.47593 41.7772 331.50828 41.541158 331.60527 41.57337 331.73463 41.500726 331.83164 41.676614 331.86399 41.562536 332.09034 41.500726 332.155 41.58892 332.18736 41.500726H332.38139L332.4137 41.727758 332.47837 41.605848 332.5107 41.5648 332.57539 41.643716 332.6724 41.560907 332.70475 41.51272 332.7694 41.577745 332.83409 41.666879 332.89878 41.587289 333.0281 41.526929 333.06047 41.573976 333.12513 41.500726 333.22215 41.53079 333.2868 41.80652 333.35148 41.64375 333.4485 41.500726 333.5455 41.689989 333.57786 41.647024 333.77189 41.556596 333.8042 41.599946 333.86888 41.54693 333.9012 41.71456 333.96589 41.569555 334.1599 41.67326 334.25694 41.500726 334.3216 41.54396 334.35395 41.67878 334.4186 41.610494 334.51564 41.547136 334.54798 41.610216 334.5803 41.681184 334.61265 41.568948 334.645 41.635488 334.74198 41.5037 334.77433 41.53695 334.936 41.688627 334.96836 41.544855 335.06538 41.589399 335.67979 41.500726 335.7121 41.609254 335.7768 41.55872 335.90614 41.500726 336.5529 41.56069 336.5852 41.65463 336.6499 41.507146 336.97328 41.500726 337.1026 41.562059 337.1673 41.580144 337.19963 41.708959 337.29664 41.652906 337.426 41.546377 337.4583 41.576417 337.523 41.500726 338.0404 41.548936 338.10508 41.817766 338.1374 41.690279 338.2344 41.628068 338.26676 41.71779 338.2991 41.5615 338.4931 41.500726 338.62248 41.62129 338.65483 41.5073 338.71949 41.65561 338.78416 41.60024 338.8165 41.67821 338.84883 41.77103 338.88117 41.63213 338.9135 41.69263 338.97819 41.500726 339.0105 41.643926 339.04286 41.77076 339.1075 41.607583 339.13987 41.61585 339.1722 41.772226 339.20454 41.74803 339.2692 41.53179 339.3339 41.592844 339.4309 41.55837 339.5279 41.763715 339.56025 41.663877 339.72193 41.513067 339.8513 41.634218 339.9483 41.500726 339.98063 41.559934 340.11 41.777688 340.1423 41.745 340.207 41.51303 340.27168 41.621477 340.30403 41.690107 340.33634 41.593648 340.401 41.688486 340.43336 41.563734 340.5627 41.922136 340.62739 41.761644 340.6597 41.53912 340.7244 41.7196 340.8214 41.500726 340.85374 41.62509 340.95075 41.720987 341.0801 41.500726 341.17713 41.514726 341.2418 41.74439 341.2741 41.52639 341.37113 41.507085 341.40348 41.598955 341.46815 41.51485 341.62983 41.511354 341.69453 41.58589 341.72685 41.533926 341.88853 41.50125 341.92088 41.719106 341.98554 41.565069 342.3736 41.724275 342.4059 41.539125 342.50294 41.5969 342.53529 41.69942 342.59996 41.579866 342.76164 41.673635 342.79399 41.73981 342.82633 41.629396 342.85865 41.500726 342.9233 41.62355 343.08503 41.500726 343.182 41.60363 343.21437 41.500726 343.2467 41.636816 343.31138 41.537916 343.57008 41.597635 343.60243 41.506235 343.66709 41.61404 343.8611 41.500726H343.89344L343.99046 41.643735 344.0228 41.57837 344.08747 41.763635 344.18449 41.628217 344.2815 41.615297 344.34617 41.512685 344.3785 41.587789 344.5402 41.65047 344.60487 41.500726 344.6372 41.544885 344.66954 41.70539 344.73423 41.509798 344.7989 41.642957 344.83125 41.5495 344.8959 41.608568 344.96058 41.55435 345.1546 41.500726 345.21928 41.739828 345.28395 41.652338 345.4133 41.500726 345.73667 41.67438 345.83369 41.500726 345.86604 41.572137 345.96305 41.500726 345.99537 41.629446 346.06004 41.538396 346.09239 41.554883 346.15705 41.943086 346.1894 41.656099 346.22175 41.6003 346.25407 41.890813 346.35108 41.85582 346.38343 41.500726 346.4481 41.689874 346.48045 41.673559 346.51277 41.743059 346.60978 41.888658 346.73915 41.500726 346.99784 41.60057 347.03016 41.615369 347.15953 41.500726 347.48289 41.58197 347.51524 41.707784 347.5799 41.592409 347.74159 41.500726 347.87095 41.664827 347.96794 41.51289 348.00028 41.58266 348.03263 41.634126 348.0973 41.58349 348.356 41.530298 348.42066 41.70973 348.453 41.67111 348.51768 41.500726 348.58235 41.59222 348.64704 41.648107 348.67936 41.538087 348.87339 41.500726 349.00276 41.70288 349.0674 41.500726 349.16444 41.599668 349.19676 41.73815 349.2291 41.602548 349.26145 41.50081 349.29377 41.592699 349.3261 41.86162 349.42314 41.757535 349.61717 41.500726 349.64949 41.560068 349.68183 41.521715 349.81117 41.79846 349.87586 41.549924 349.90818 41.68525 349.94053 41.78238 350.0052 41.760465 350.03755 41.636297 350.1022 41.71023 350.16688 41.962888 350.23155 41.855348 350.3609 41.72414 350.39326 41.921285 350.45793 41.65844 350.52259 41.75357 350.55494 41.663408 350.58726 41.646158 350.7166 41.86092 350.84596 41.829664 350.9753 42.050355 351.07234 41.91577 351.10466 41.96099 351.16935 42.178354 351.234 42.10297 351.3957 41.755884 351.55738 41.85114 351.58973 41.899625 351.62208 41.84735 351.6544 41.792249 351.71907 41.84399 351.7514 41.898965 351.81608 41.822317 351.94544 41.650629 351.97776 41.675058 352.0101 41.765523 352.07478 41.709295 352.2688 41.500726H352.33348L352.49519 41.816938 352.55986 41.516496 352.6245 41.658075 352.65687 41.95919 352.75389 41.857759 352.81855 41.500726 352.85087 41.60318 352.91557 41.958696 352.94789 41.67316 353.01258 41.544225 353.1419 41.979749 353.27128 41.724176 353.4006 41.798814 353.62696 41.513338 353.6593 41.500726 353.82099 41.95553 353.918 41.536554 353.95036 41.57439 354.04737 41.866136 354.07969 41.81762 354.1767 41.500726 354.20906 41.563688 354.33839 41.96368 354.37074 41.896467 354.40309 41.880338 354.5324 41.61976 354.56477 41.74979 354.59709 41.603185 354.62944 41.500726 354.66178 41.660486 354.72645 41.918275 354.7911 41.782236 354.92048 41.500726 355.95527 41.580907 356.11695 41.87222 356.1816 41.76831 356.24629 41.83283 356.27864 41.971548 356.31098 41.867139 356.3433 41.58232 356.408 41.859106 356.63435 41.526727 356.6667 41.649938 356.73136 41.500726H357.2164L357.24876 41.643468 357.34577 41.599924 357.4751 41.500726 357.5398 41.566888 357.5721 41.64282 357.60447 41.500726H357.7338L357.8308 41.696779 357.86317 41.651014 357.89549 41.515188 357.92784 41.527597 357.96018 41.951669 358.0572 41.780729 358.15419 41.717046 358.18653 41.830308 358.21888 42.03735 358.2512 41.734735 358.38056 41.500726 358.5746 42.04391 358.63926 41.803716 358.6716 41.991739 358.70393 42.243474 358.73628 41.713228 358.7686 41.732435 358.8656 41.500726 358.89796 41.6073 358.96263 41.500726 359.02729 41.855726 359.09199 41.638944 359.1243 41.634527 359.15666 41.500726 359.189 41.823579 359.2213 41.672609 359.25367 42.03231 359.35069 41.901235 359.383 41.98668 359.41535 41.538034 359.48 41.81144 359.51237 42.18567 359.57704 41.989748 359.7064 41.500726H359.8034L359.9651 42.72442 360.0621 41.500726 360.09443 41.91749 360.12678 41.54834 360.1591 42.28896 360.4178 41.500726 360.5148 41.59557 360.64418 42.9102 360.80586 41.74336 360.96754 41.500726 361.0322 41.537549 361.1292 41.79688 361.25859 41.500726 361.32325 41.66047 361.3879 41.63975 361.51728 41.500726 361.5496 41.626008 361.6143 41.57156 361.67897 41.615438 361.74363 41.500726H361.873L361.97 41.54849 362.03468 41.668336 362.06703 41.54116 363.2958 41.567388 363.3605 41.500726 363.42518 41.784364 363.45753 41.676366 363.48985 41.571428 363.5222 41.77891 363.5545 41.699628 363.58686 41.75911 363.6192 41.68581 363.78089 41.500726 363.8132 41.635076 363.8779 41.500726 363.94258 41.548948 363.9749 41.6703 364.03959 41.500726 364.0719 41.502286 364.20127 41.715967 364.2336 41.552625 364.29829 41.67242 364.36296 41.69406 364.3953 41.589506 364.45997 41.7528 364.52464 41.500726 364.55699 41.59636 364.62165 41.827299 364.654 41.65527 364.71867 41.737039 364.81568 41.564928 364.9127 41.896184 364.945 41.64128 365.2037 41.500726 365.2684 41.63351 365.30073 41.55587 365.43009 41.500726 365.75346 41.520448 365.85047 41.624654 366.01216 41.516824 366.20619 41.739748 366.27085 41.615495 366.36787 41.500726 366.49723 41.648557 366.6589 41.540906 366.69123 41.621267 366.75593 41.533498 366.88526 41.506025 367.07929 41.794294 367.27333 41.6284 367.30564 41.702657 367.33799 41.61778 367.37034 41.510576 367.435 41.577394 367.49967 41.515016 367.56434 41.724958 367.62904 41.642808 368.3081 41.592706 368.4698 41.757368 368.59913 41.50522 368.66383 41.589899 368.69615 41.51253 368.79316 41.51996 368.85786 41.65571 368.92253 41.59077 370.05433 41.574316 370.08665 41.514635 370.15135 41.568426 370.28068 41.644754 370.57173 41.500726 371.3478 41.569139 371.38014 41.61433 371.44483 41.519254 371.67118 41.59925 371.99455 41.560575 372.15626 41.594205 372.18858 41.517686 372.25325 41.551256 372.44728 41.60183 372.60896 41.50129 372.77067 41.56528 372.9 41.536275 373.19105 41.500726 373.35273 41.5945 373.38505 41.5247 373.4174 41.60347 373.48207 41.705106 373.5144 41.609117 373.54676 41.500726 373.61143 41.52753 373.74076 41.548528 373.87013 41.668066 373.90248 41.599454 374.5492 41.53042 374.58155 41.615949 374.6462 41.561437 375.29298 41.552854 375.3253 41.65142 375.38996 41.568315 375.4223 41.538667 375.45466 41.618906 375.55168 41.6974 375.58399 41.6296 375.681 41.500726 375.71336 41.608839 375.778 41.500726 375.97206 41.645025 376.10139 41.560407 376.1984 41.538347 376.36009 41.500726 376.48945 41.59829 376.58647 41.649686 376.61878 41.542375 376.68348 41.711168 376.74815 41.593656 376.87748 41.500726H376.90983L376.9745 41.709768 377.00685 41.625738 377.16853 41.500726 377.2332 41.770647 377.29789 41.753625 377.42723 41.53519 377.55659 41.599748 377.78294 41.517076 377.91227 41.725996 377.9446 41.690904 377.97697 41.55386 378.04164 41.570825 378.17097 41.82716 378.2033 41.793607 378.33268 41.51048 378.365 41.53737 378.81773 41.582357 378.91474 41.500726 378.94709 41.545118 378.9794 41.62109 379.04408 41.53585 379.10877 41.500726 379.17344 41.652128 379.20579 41.600137 379.2381 41.52817 379.27046 41.688428 379.30278 41.62585 379.43214 41.752519 379.5938 41.500726 379.62617 41.54798 379.65849 41.61372 379.72319 41.555864 379.8525 41.504625 379.88487 41.677228 379.94953 41.557603 380.40226 41.53829 380.85499 41.65051 380.8873 41.77042 380.91966 41.637166 380.952 41.525144 380.9843 41.66554 381.08134 41.816808 381.2107 41.589097 381.4694 41.866655 381.5017 41.794416 381.6634 41.500726H381.69575L381.7604 41.811796 381.79277 41.707925 381.8251 41.500726 381.85743 41.58907 381.88978 41.85105 381.95445 41.56022 382.0191 41.706415 382.05146 41.623914 382.0838 41.537225 382.11613 41.659917 382.14848 41.70238 382.2778 41.503034 382.37483 41.907648 382.40718 41.715627 382.43949 41.562086 382.47184 41.779569 382.5365 41.614858 382.6335 41.500726 382.66587 41.69889 382.73054 41.603216 382.8599 41.500726 382.9569 41.575834 383.02159 41.75381 383.0539 41.597635 383.1186 41.654287 383.1509 41.706758 383.18327 41.615056 383.2156 41.500726 383.24794 41.77655 383.34495 41.500726 383.3773 41.72104 383.4096 41.73632 383.44197 41.571 383.4743 41.741178 383.50663 41.918779 383.53898 41.75472 383.60365 41.831037 383.6683 41.563516 383.70066 41.649656 383.733 41.607938 383.79768 41.500726 383.83 41.52691 383.86235 41.68812 383.95936 41.618146 384.02403 41.615629 384.08869 41.82353 384.12104 41.564245 384.1857 41.500726 384.2504 41.544069 384.41209 41.5116 384.5414 41.73924 384.57377 41.72298 384.7031 41.504964 384.73545 41.55229 384.8001 41.500726 384.83247 41.526865 384.89714 41.58275 384.92948 41.500726H384.9618L385.0265 41.827539 385.09117 41.610754 385.15583 41.776575 385.18818 41.68388 385.2205 41.500726 385.2852 41.632547 385.3175 41.68954 385.34986 41.668207 385.47923 41.54659 385.6409 41.545515 385.7379 41.500726 385.77024 41.545267 385.86726 41.586145 385.8996 41.667776 385.96427 41.58191 386.02894 41.500726 386.0936 41.55379 386.54634 41.644029 386.57868 41.73475 386.61103 41.500726 386.6757 41.685655 386.708 41.60733 386.74037 41.850149 386.80503 41.62742 386.86973 41.791715 386.90205 41.603666 387.09608 41.664609 387.12843 41.92411 387.19309 41.668184 387.2901 41.500726 387.32243 41.811178 387.38713 41.726137 387.51646 41.500726H387.5488L387.58113 41.892835 387.6458 41.62558 387.67814 41.534036 387.71049 41.586435 387.87217 41.964689 387.9045 41.943197 387.96919 41.548406 388.03385 41.56571 388.0662 41.500726 388.1632 41.81271 388.19554 41.792299 388.38957 41.500726 388.45423 41.794404 388.51893 41.712644 388.5836 41.64978 388.6159 41.73834 388.64826 41.93405 388.71293 41.788293 388.74528 41.500726 388.8423 41.616304 388.87464 41.55168 388.90696 41.79846 388.97163 41.500726 389.03633 41.66246 389.10099 41.595228 389.198 41.500726 389.23033 41.571744 389.26268 41.670846 389.295 41.564989 389.35969 41.500726 389.52137 41.78794 389.5537 41.908716 389.58604 41.771398 389.7154 41.500726 389.78007 41.70805 389.8124 41.560655 389.87709 41.500726 389.94175 41.76641 390.03877 41.70044 390.0711 41.786466 390.10343 41.549726 390.16813 41.788846 390.36213 41.520864 390.39448 41.591539 390.55616 41.623918 390.62083 41.500726 390.65318 41.54125 390.71784 41.611375 390.75019 41.54506 390.78254 41.528764 390.81486 41.675165 390.87953 41.56428 391.04124 41.507417 391.59095 41.500726 391.81733 41.62372 391.979 41.500726 392.04368 41.682859 392.07603 41.500726 392.17304 41.594179 392.2377 41.68336 392.27006 41.54894 392.30238 41.60084 392.36705 41.915063 392.39939 41.801065 392.56108 41.500726H392.62574L392.69044 41.836549 392.72276 41.807195 392.8521 41.66056 392.98146 41.872159 392.91679 41.57464 393.07847 41.769346 393.24015 41.500726 393.2725 41.640047 393.46653 41.747514 393.59587 41.64019 393.6282 41.668424 393.66056 41.571683 393.82225 41.51157 393.8869 41.70396 393.98393 41.66316 394.08094 41.500726 394.1456 41.54441 394.17796 41.655809 394.2426 41.626447 394.4043 41.500726H394.63066L394.663 41.650457 394.72767 41.55788 394.85704 41.500726 395.34208 41.581068 395.4391 41.787286 395.47145 41.726617 395.66545 41.619455 395.69779 41.597784 395.73014 41.73447 395.7948 41.617849 395.92417 41.60943 396.02116 41.79412 396.1505 41.625055 396.27986 41.61278 396.47389 41.72151 396.76493 41.528318 396.79725 41.622907 396.86195 41.58241 396.89427 41.522539 396.9266 41.54444 396.95896 41.66332 396.99128 41.500726H397.02363L397.0883 41.58396 397.12065 41.73571 397.15296 41.500726 397.47636 41.565996 397.50868 41.7418 397.57337 41.588937 397.63804 41.76249 397.67036 41.70043 397.7997 41.500726 398.09077 42.45072 398.12309 41.98767 398.18778 41.944204 398.25245 42.198419 398.3171 41.695795 398.38179 41.913347 398.51115 42.750444 398.54347 42.245138 398.60816 42.352144 398.67283 43.354204 398.70518 42.469358 398.7375 42.133729 398.76985 42.389799 398.93153 44.11341 398.9962 42.09303 399.02854 42.59202 399.06086 43.46877 399.12556 43.0491 399.22257 41.766527 399.25489 42.102979 399.3519 43.785715 399.41658 42.7482 399.4489 42.310705 399.48127 42.6703 399.6106 43.522027 399.77229 41.768796 399.80464 41.840387 399.83699 42.202077 399.8693 41.500726H399.90165L399.93397 41.698747 399.9663 41.500726 399.99867 42.864984 400.06333 41.513578 400.16035 41.500726 400.25736 42.60256 400.32203 41.500726 400.35438 41.651494 400.3867 42.969236 400.45137 41.9876 400.51606 42.157995 400.54838 41.500726 400.67774 42.185415 400.7424 41.6229 400.77476 41.71394 400.80708 42.30042 400.87178 41.641088 401.03346 41.500726 401.06578 42.096136 401.13047 41.500726 401.29216 41.6098 401.32447 41.64105 401.42149 41.500726 401.48619 42.04944 401.55085 41.62222 401.58317 41.500726 401.6155 41.76799 401.74488 41.618768 401.8742 41.86917 401.90657 41.805185 401.93888 41.87162 401.97123 41.990575 402.00358 41.725885 402.06825 41.500726 402.1006 41.601545 402.16526 41.948476 402.19758 41.831483 402.26228 41.652948 402.2946 41.720628 402.3916 41.906858 402.52098 41.628538 402.61799 41.573785 402.6503 41.543104 402.68266 41.648756 402.77967 41.808038 402.81199 41.601247 402.909 41.61748 402.94136 41.51857 403.03837 41.994 403.1677 41.500726 403.39408 42.038309 403.4911 41.500726 403.5234 41.74513 403.55577 41.887498 403.58808 41.737157 403.71745 41.500726H403.7821L403.87913 41.98151 404.00849 41.500726 404.0408 41.803609 404.10548 41.674776 404.2995 41.64331 404.33186 42.28514 404.3965 41.955907 404.46119 41.5954 404.49354 42.111688 404.52589 41.500726H404.5582 404.59056L404.6229 42.345556 404.68757 41.500726 404.8169 42.443838 404.84925 42.29072 404.9139 42.39511 404.94627 41.66894 405.01094 50.50175 405.04328 43.726888 405.1403 41.500726 405.1726 41.8806 405.30198 41.500726 405.36665 41.528264 405.4313 41.500726 405.46366 41.761926 405.56068 41.500726 405.65769 42.172967 405.72236 41.500726 405.7547 42.55378 405.81938 41.516916 405.9487 42.065778 406.07807 41.500726 406.11039 41.627954 406.17509 41.658369 406.2074 42.251 406.2721 41.500726 406.43379 42.124608 406.49845 41.79001 406.5308 41.500726 406.5631 41.605768 406.69248 42.29412 406.8218 41.500726 406.8865 42.59617 406.91883 41.698194 406.95118 41.500726 406.9835 42.52728 407.0482 41.71624 407.0805 41.500726 407.11286 41.788084 407.1452 42.064859 407.17753 41.723146 407.27455 41.500726 407.3069 41.528039 407.3392 41.55108 407.37156 42.156545 407.43623 41.500726 407.46858 41.7264 407.53324 41.500726 407.69493 41.55652 407.7596 41.52662 407.79194 41.63658 407.8566 41.500726 407.88896 41.666868 407.9213 41.64996 408.0183 41.500726 408.05064 41.586969 408.1153 41.50114 408.18 43.259016 408.2123 42.14224 408.34169 41.500726 408.374 41.758237 408.4387 41.500726 408.82673 41.597307 408.9561 41.586645 409.08543 41.52687 409.15013 41.575738 409.21479 41.500726H409.34413L409.37648 41.63778 409.47349 41.56727 409.63517 41.607694 409.73219 41.578248 409.79685 41.60984 409.8292 41.559659 410.1849 41.56659 410.24958 41.603628 410.31425 41.793157 410.3789 41.634698 410.4436 41.500726 410.47593 41.591238 410.54063 41.67741 410.57295 41.568338 410.6376 41.500726 410.7023 41.535375 410.961 41.681665 411.15504 41.500726 411.18736 41.578908 411.252 41.542909 411.3167 41.507379 411.41374 41.64789 411.4784 41.521505 411.5107 41.66139 411.54307 41.74574 411.5754 41.678247 411.60774 41.505239 411.67243 41.697896 411.70475 41.689676 411.7371 41.820878 411.7694 41.744485 411.89878 41.593748 411.93113 41.63375 411.96345 41.500726 412.06047 41.601709 412.0928 41.690198 412.15748 41.614507 412.18983 41.538927 412.22215 41.756448 412.28684 41.6549 412.41618 41.508306 412.51319 41.855417 412.54554 41.791166 412.67488 41.500726 412.80424 41.53932 412.83656 41.823339 412.9012 41.500726H412.99824L413.06294 42.14004 413.1276 41.808946 413.25694 41.500726 413.28929 41.70402 413.3863 46.109724 413.51564 41.500726H413.54798L413.58033 42.893976 413.67735 42.7573 413.70967 42.55879 413.77433 42.308946 413.87135 44.70973 414.03303 41.500726 414.06538 41.664064 414.16239 41.500726 414.22706 42.9545 414.29173 42.621107 414.45344 41.500726 414.48576 43.911638 414.58277 43.376649 414.64744 43.38917 414.71214 41.500726H414.80915L415.00315 43.359685 415.1325 41.500726H415.26185L415.2942 41.928697 415.3912 41.761629 415.48823 41.500726 415.58525 42.598989 415.61756 42.413068 415.6499 41.500726 415.68226 42.79562 415.71458 42.012029 415.74693 42.22352 415.84394 41.500726 415.87626 41.591875 415.9086 41.500726 415.97328 42.301374 416.0056 42.050645 416.13496 41.500726H416.1673L416.19966 41.87688 416.2643 41.500726 416.39366 41.82614 416.426 41.74089 416.523 41.628629 416.55534 41.73103 416.6847 41.500726 416.74937 41.806505 416.7817 41.648908 416.81404 41.984247 416.87873 41.589437 416.91105 41.860956 416.9434 41.940984 416.97575 41.77215 417.23445 41.500726 417.39613 41.590555 417.4608 41.669267 417.52546 41.500726 417.5578 41.60515 417.62248 41.56981 417.68714 41.61513 417.75184 41.55365 417.94584 41.710638 418.04286 41.553689 418.0752 41.598634 418.10755 41.524526 418.1722 41.588167 418.3339 41.61291 418.36625 41.631147 418.39857 41.516569 418.49559 41.564954 418.52793 41.691457 418.56025 41.53323 418.5926 41.528367 418.6896 41.56039 418.75428 41.500726 418.78663 41.55501 418.91596 41.729684 419.01298 41.526865 419.04533 41.639627 419.14234 41.707685 419.17466 41.51639 419.27168 41.599218 419.30403 41.56513 419.33638 41.671125 419.36869 41.79272 419.43336 41.6712 419.4657 41.64203 419.49806 41.75462 419.5627 41.776445 419.62739 41.593267 419.65974 41.691968 419.75675 41.606435 419.88609 41.53949 420.14479 41.52761 420.20945 41.53054 420.2418 41.643884 420.30647 41.500726 420.82386 41.59431 420.92088 41.63564 420.95323 41.593214 420.98558 41.682298 421.1149 41.95496 421.24427 41.533796 421.3736 42.477987 421.53529 41.547708 421.988 42.2572 422.02037 42.1326 422.1497 41.737 422.31138 42.222 422.4084 42.600454 422.44075 42.267789 422.53776 42.342649 422.60243 42.587476 422.63478 42.448896 422.73179 42.22021 422.7641 42.336927 422.92579 41.61291 423.08747 42.23017 422.99049 41.56233 423.18449 42.016595 423.21684 41.977338 423.2815 42.3907 423.34617 42.285287 423.3785 42.272985 423.44319 41.639074 423.50788 41.774953 423.5402 42.040044 423.60487 41.790525 423.7989 41.500726 423.83125 41.777387 423.8959 41.500726 424.02528 41.749357 424.21928 41.51326 424.25163 41.811639 424.31629 41.63508 424.34864 41.500726 424.38099 41.67666 424.4133 41.898397 424.44566 41.702085 424.47798 41.500726 424.54267 41.581956 424.60734 41.911794 424.63969 41.57872 424.73667 41.500726 424.86604 41.946016 424.96305 41.500726 424.9954 41.509218 425.12474 41.669404 425.2541 41.500726 425.4481 41.780027 425.57746 41.500726 425.64213 41.57428 425.7068 41.675489 425.77149 41.624959 425.83616 41.64049 425.86848 41.500726 425.90083 41.531549 425.99784 42.137666 426.0625 41.500726 426.09486 42.32562 426.12718 42.21704 426.19187 41.500726 426.25654 41.812875 426.3212 41.5221 426.3859 41.5797 426.70927 41.592466 426.74159 41.667039 426.80628 41.558439 426.8386 41.546907 426.87095 41.639837 426.9033 41.66772 426.9356 41.500726 427.03263 41.58316 427.22666 41.53538 427.25898 41.654687 427.32368 41.500726 427.6147 41.583887 427.7117 41.625249 427.74406 41.52419 427.80873 41.623556 427.87339 41.783647 427.90574 41.63369 428.0351 41.51838 428.97288 41.500726 429.0052 41.70501 429.0699 41.619489 429.1022 41.500726 429.1669 41.530649 429.32859 41.647188 429.52259 41.50636 429.58729 41.681348 429.65196 41.608636 429.84599 41.525224 429.91065 41.698038 429.943 41.60972 430.04 41.503587 430.07234 41.562177 430.10469 41.708288 430.137 41.500726H430.16935L430.36338 41.7126 430.42805 41.553358 430.4604 41.68912 430.52507 41.749818 430.5574 41.640306 430.62208 41.631517 430.6544 41.7552 430.7191 41.6054 430.88078 41.655969 430.9131 41.500726 430.97779 41.654565 431.0748 41.746953 431.1718 41.500726 431.23649 41.577886 431.3658 41.52117 431.4305 41.69238 431.46284 41.648386 431.5922 41.500726 431.6892 41.50407 431.72154 41.798398 431.7862 41.500726H431.8832L431.9479 41.70635 431.98023 41.63849 432.07725 41.541097 432.1096 41.5837 432.27128 41.548959 432.33595 41.51107 432.49763 41.661874 432.56233 41.57882 432.62699 41.640329 432.78868 41.6674 432.821 41.72726 432.88569 41.68262 432.95036 41.5626 432.9827 41.68258 433.5971 41.500726 433.66178 41.62254 433.72645 41.555566 433.8558 41.54369 433.98515 41.500726 434.0175 41.56085 434.17918 41.509344 434.24385 41.523675 434.3085 41.814489 434.34086 41.64166 434.40553 41.558004 434.43788 41.678686 434.56724 41.72945 434.59956 41.53843 434.6642 41.690076 434.76124 41.760599 434.79359 41.500726 434.8906 41.56008 434.9876 42.044099 435.01994 41.875356 435.11695 41.500726 435.1493 41.59596 435.21397 41.674585 435.2463 41.6049 435.34333 41.505819 435.37565 41.80596 435.44035 41.713438 435.53733 41.55995 435.56968 41.743257 435.63435 41.5347 435.6667 41.568727 435.73136 41.500726 436.15174 41.607904 436.2811 41.74632 436.31343 41.52551 436.3781 41.822187 436.47514 41.947896 436.44279 41.764986 436.50746 41.88288 436.5398 41.93175 436.5721 41.906587 436.60447 41.821046 436.6368 42.018 436.66914 42.088224 436.70149 42.060865 436.86317 41.73578 436.8955 41.821985 436.92784 41.794546 436.99253 41.500726 437.0572 41.576784 437.18653 41.500726 437.21888 41.79557 437.28355 41.618169 437.4129 41.500726H437.47758L437.5746 42.20022 437.6716 41.500726 437.70393 41.867967 437.73628 41.97279 437.76863 41.500726 437.83329 41.927606 437.9303 41.600397 437.96266 41.703329 438.05964 42.064207 438.12434 41.500726 438.15666 41.910768 438.189 41.90549 438.22135 42.04754 438.25367 41.500726 438.35069 41.600145 438.48005 42.468404 438.57704 41.563879 438.60939 42.00119 438.67405 41.8531 438.7064 41.95409 438.73875 42.166387 438.83573 41.500726 438.86808 41.931379 438.93275 41.666685 439.0621 41.500726 439.2238 41.534658 439.28846 41.890474 439.3208 41.86569 439.38548 41.534196 439.41783 41.692396 439.45014 41.79269 439.51484 41.500726 439.5795 41.549207 439.61186 41.500726 439.64418 41.950674 439.70884 41.500726H439.77354L439.87055 41.87774 439.9352 41.500726 439.99989 41.641424 440.0969 41.805044 440.16157 41.500726 440.22624 41.63109 440.32325 41.879659 440.3556 41.706464 440.48497 41.500726 440.6143 41.717229 440.67897 41.658529 440.74366 41.500726 440.80833 41.60039 440.84065 41.636476 440.90534 41.679296 440.97 41.500726 441.03468 41.53928 441.13169 41.854635 441.16404 41.61193 441.19636 41.54015 441.2287 41.560785 441.26106 41.76242 441.35807 41.688646 441.4874 41.904237 441.55207 41.774248 441.5844 41.69973 441.61677 41.805864 441.64909 41.798524 441.7461 42.072435 441.77845 41.974649 441.94013 41.500726 442.1018 41.761266 442.19883 41.79408 442.2635 41.637159 442.29585 41.70072 442.39286 41.871316 442.42518 41.589006 442.48988 41.761407 442.5222 42.075178 442.58686 41.757379 442.65156 41.640989 442.68388 41.69988 442.78089 42.038934 442.81324 41.846 442.94258 41.66289 443.03959 41.956037 443.10426 41.627538 443.1366 41.861799 443.16896 41.920366 443.33064 41.54514 443.36296 41.57696 443.42765 41.500726H443.81568L443.84803 41.74611 443.9127 41.653955 443.94505 41.500726 444.0097 41.55611 444.04206 41.72668 444.07438 41.500726H444.10673 444.13908L444.30076 42.22287 444.46244 41.648256 444.49476 41.877595 444.55946 41.800928 444.6241 41.567674 444.65647 41.64755 444.68879 41.75064 444.75346 41.70446 444.81816 41.500726 444.85047 41.72028 444.8828 41.790117 444.91517 41.500726 444.97984 41.651304 445.0445 41.58991 445.17387 41.500726 446.62904 41.631258 446.72605 41.66993 446.82307 41.620405 446.92008 41.905729 446.9524 41.77004 447.08177 41.875326 447.11408 41.90941 447.17878 41.704095 447.24345 41.822134 447.3081 41.94497 447.34046 41.84681 447.59916 41.807134 447.63148 41.879514 447.66383 41.805624 447.79319 41.500726H447.98719L448.37525 41.59621 448.4399 41.62316 448.47227 41.559488 448.53694 41.67483 448.56929 41.729108 448.6016 41.500726 448.6663 41.793336 448.73097 41.74071 448.76329 41.69851 448.79563 41.759939 448.89265 42.116914 448.9573 41.967084 449.05433 41.500726 449.119 41.609987 449.15135 41.722406 449.216 41.607797 449.28068 41.500726 449.31303 41.628538 449.41004 41.58076 449.4747 41.784795 449.60408 41.602643 449.7334 41.524595 449.86277 41.60567 449.95979 41.500726 450.0568 41.73618 450.0891 41.650335 450.12147 41.58996 450.18614 41.661149 450.21849 41.732427 450.2508 41.621355 450.28315 41.62808 450.3478 41.500726 450.38017 41.56732 450.44483 41.74029 450.5095 41.58141 450.54185 41.522188 450.5742 41.619939 450.67118 41.744478 450.70353 41.71712 450.8652 41.500726 450.9299 41.735849 450.96223 41.64205 450.99458 41.55715 451.0269 41.68158 451.05924 41.68914 451.25328 41.672174 451.28559 41.807226 451.31794 41.630479 451.4796 41.500726 451.54429 41.627645 451.6413 41.53103 451.77067 41.69147 451.803 41.625535 451.86769 41.500726 451.9 41.53486 451.997 41.670766 452.0617 41.60637 452.1587 41.534399 452.19105 41.584058 452.2234 41.68843 452.2557 41.527578 452.3204 41.611375 452.35273 41.576608 452.61143 41.567045 452.70845 41.52286 452.6761 41.59865 452.74079 41.544504 452.87013 41.603319 452.93479 41.500726 452.96714 41.6008 453.0318 41.683656 453.06416 41.655176 453.16117 41.500726 453.1935 41.572824 453.25819 41.625619 453.2905 41.534887 453.48454 41.59637 453.58155 41.68022 453.6139 41.63433 453.9049 41.538259 454.03428 41.74068 454.0666 41.67349 454.1636 41.500726 454.2283 41.604089 454.29298 41.544717 454.32533 41.500726 454.35765 41.597993 454.38999 41.701539 454.487 41.642839 454.71336 41.5096 454.7457 41.66362 454.778 41.688329 454.81037 41.575918 454.8427 41.53247 454.97206 41.75849 455.1014 41.517187 455.13374 41.53092 455.16609 41.58293 455.23075 41.50181 455.2954 41.546499 455.32777 41.715364 455.42478 41.63191 455.58647 41.78725 455.6188 41.862249 455.74815 41.504915 455.8775 41.62925 456.16853 41.500726 456.78294 41.555566 456.81529 41.68099 456.87995 41.500726 457.13865 41.54001 457.2033 41.657018 457.23567 41.63237 457.30033 41.500726 457.33268 41.565034 457.39735 41.653669 457.4297 41.51893 457.59138 41.589315 457.62373 41.500726 457.72074 41.542585 457.7854 41.61323 457.85008 41.538194 457.97944 41.730897 458.07643 41.500726 458.10877 41.566804 458.17344 41.500726 458.20579 41.52075 458.36747 41.7234 458.3998 41.779306 458.43214 41.62767 458.5615 41.518983 458.5938 41.54607 458.6585 41.779108 458.69084 41.519769 458.85255 41.813283 458.88487 41.568235 458.98188 41.624036 459.01423 41.74033 459.0789 41.604429 459.11125 41.54852 459.1759 41.65289 459.4346 41.500726 459.49928 41.615499 459.53163 41.500726 459.952 41.593248 460.11369 41.712015 460.14604 41.6674 460.27537 41.527528 460.3077 41.604127 460.53407 41.629468 460.59873 41.66359 460.69575 41.500726 460.9868 41.676664 461.24549 41.551256 461.27784 41.71625 461.3425 41.61573 461.37486 41.500726 461.4395 41.674055 461.79524 41.56809 461.82756 41.609018 461.89225 41.5194 462.31263 41.526189 462.40965 41.583787 462.44197 41.500726 462.50666 41.620836 462.53898 41.61582 462.57133 41.74065 462.636 41.678247 462.89469 41.52175 462.95936 41.64494 463.02406 41.60429 463.05638 41.589365 463.12104 41.924528 463.15339 41.762506 463.18574 41.55761 463.2504 41.599096 463.28276 41.686754 463.3474 41.582948 463.44444 41.59895 463.57377 41.823823 463.7678 41.770807 463.92948 41.555505 463.96183 41.643476 464.0265 41.566217 464.1235 41.597837 464.22053 41.6784 464.25285 41.634256 464.54389 41.504205 464.57624 41.663999 464.67326 41.60562 464.80259 41.52616 464.96427 41.70337 465.1583 41.552373 465.2553 41.741289 465.28767 41.52117 465.35234 41.673875 465.38465 41.70706 465.417 41.500726 465.48167 41.657667 465.54637 41.80395 465.61103 41.704446 465.86973 41.618425 465.90208 41.715166 465.9344 41.600149 465.96675 41.554899 466.06376 41.937128 466.09608 41.905145 466.12843 41.986986 466.16078 41.78774 466.2901 41.500726 466.38713 41.716005 466.41947 41.500726 466.48414 41.62439 466.71049 42.104654 466.77516 42.151075 466.87217 42.049077 466.93687 42.091669 467.00154 42.03941 467.03385 42.142404 467.1632 41.80029 467.19557 41.99619 467.22789 41.786489 467.26023 41.806596 467.29258 41.55615 467.35725 41.828199 467.48658 41.660284 467.55128 41.79836 467.6806 41.500726 467.90696 41.60138 467.9393 41.750669 467.97166 41.500726 468.00398 41.608129 468.06867 41.63249 468.198 42.872106 468.13334 41.500726 468.26268 42.37794 468.32737 41.500726 468.39204 41.606405 468.42439 41.740114 468.4567 41.500726H468.48905L468.5537 42.234136 468.58607 42.0497 468.68309 41.500726 468.74775 41.876317 468.78007 41.70138 468.8124 41.500726 468.84477 41.763097 468.87709 41.923868 468.94178 41.718694 468.9741 41.500726 469.03877 41.74004 469.13578 42.193227 469.2328 41.55132 469.26515 41.77019 469.29747 42.160409 469.39448 42.113664 469.42683 42.09915 469.45918 41.824014 469.4915 42.25771 469.52384 42.18656 469.55619 42.196256 469.5885 42.519006 469.62086 42.35631 469.71788 41.548688 469.75019 41.751768 469.78254 41.536836 469.9442 42.427164 469.97657 42.366029 470.04124 42.83997 470.1059 42.60197 470.13825 42.573209 470.17057 43.11731 470.2029 42.295705 470.23527 42.68937 470.29994 42.12154 470.33229 42.423448 470.3646 42.646368 470.4616 41.56445 470.49397 42.086824 470.55863 41.711778 470.6233 42.921415 470.75267 41.89403 470.688 43.136079 470.78498 41.956247 470.81733 42.051725 470.91435 41.500726 470.9467 41.586095 470.979 42.7667 471.01136 41.500726H471.04368L471.07603 41.57278 471.10838 42.248388 471.17304 41.922815 471.2377 41.500726 471.33473 42.618879 471.36708 42.178495 471.46409 41.500726 471.4964 42.185739 471.5934 42.04941 471.62577 41.98075 471.69044 42.08591 471.72279 42.37606 471.7551 41.993787 471.8198 42.3479 471.8521 42.32084 471.94914 41.500726 472.0138 42.997369 472.0785 41.95447 472.14317 41.99348 472.17549 41.500726 472.24018 41.96367 472.2725 42.086908 472.30485 41.563688 472.3695 42.032747 472.40187 42.03753 472.5312 41.500726 472.69288 41.933977 472.82225 41.698625 472.85459 41.617914 472.8869 41.696458 472.9516 42.07393 473.01628 41.783178 473.1456 41.500726 473.2426 41.73219 473.27497 41.618215 473.30729 41.625135 473.33964 41.932336 473.4043 41.66183 473.43666 41.557695 473.5013 41.677328 473.59834 41.500726 473.63069 41.543779 473.663 41.691083 473.7277 41.500726H473.9217L474.0187 41.544378 474.05107 41.641649 474.08338 41.500726 474.14808 41.586378 474.1804 41.665796 474.2451 41.561429 474.40678 41.59556 474.50379 41.726476 474.6008 41.500726 474.63313 41.561735 474.73014 41.601507 474.7948 41.500726 474.8595 41.778196 474.92417 41.670579 474.95649 41.50752 474.98884 41.51745 475.0535 41.886808 475.08586 41.73974 475.2152 41.534826 475.3769 41.73256 475.4092 41.825555 475.44157 41.72693 475.50624 41.78787 475.5709 41.661706 475.6679 41.751886 475.7326 41.500726 475.76493 41.540708 475.9266 41.972509 475.95896 41.965959 476.15299 41.500726 476.21766 41.602933 476.25 41.66773 476.28233 41.61434 476.37934 41.51799 476.444 41.745859 476.47636 41.500726 476.57337 41.59681 476.6057 41.68049 476.63804 41.57374 476.73506 41.500726 476.7997 41.747644 476.83207 41.54151 476.92909 41.500726 477.15544 41.95703 477.25245 41.636274 477.3171 41.6887 477.34947 41.75696 477.41413 41.693418 477.44648 41.500726 477.4788 41.571954 477.51115 41.87031 477.60816 41.76595 477.6405 41.7823 477.67283 41.688608 477.70518 41.529489 477.73753 41.6357 477.76985 41.771135 477.8345 41.64171 477.93153 41.8071 477.96388 41.679174 478.02854 41.520269 478.06089 41.62486 478.0932 41.803186 478.1579 41.733938 478.31959 41.500726 478.3519 41.502248 478.48127 41.98758 478.5136 41.892797 478.64295 41.57796 478.6753 41.63372 478.7076 41.567239 478.7723 41.500726 478.80464 41.561559 478.9663 42.119249 478.99867 42.10865 479.12803 41.63755 479.25736 41.500726 479.4514 41.878114 479.61308 41.500726 479.67774 42.00894 479.71009 41.722864 479.83943 41.500726 479.9041 41.510496 480.03346 41.79993 480.1628 41.505884 480.29216 41.587694 480.3568 41.78457 480.48619 41.500726 480.51853 41.688875 480.5832 41.525667 480.74488 41.67397 480.77723 41.501634 480.8419 41.67577 480.97123 41.95478 481.03593 41.569456 481.1006 41.69085 481.1976 41.951974 481.16526 41.613424 481.22993 41.86072 481.26228 41.59665 481.32695 41.94706 481.48863 41.500726 481.52098 41.78872 481.58564 41.500726H481.65034L481.77967 41.67563 481.84434 41.500726 481.87669 41.577234 481.94136 41.64633 481.9737 41.544237 482.0707 41.500726 482.10304 41.70186 482.16773 41.619157 482.2324 41.500726 482.26475 41.63546 482.4911 41.548589 482.55577 41.708078 482.5881 41.63005 482.62043 41.576917 482.65278 41.732656 482.68513 41.776807"/>
</g>
<path transform="matrix(1,0,0,-1,-.000000000000000166533,294.57)" stroke-width=".8" stroke-linecap="square" stroke-miterlimit="10" stroke-linejoin="miter" fill="none" stroke="#cccccc" d="M287.1431 35.99492V157.12265"/>
<path transform="matrix(1,0,0,-1,-.000000000000000166533,294.57)" stroke-width=".8" stroke-linecap="square" stroke-miterlimit="10" stroke-linejoin="miter" fill="none" stroke="#cccccc" d="M287.1431 35.99492H491.99665"/>
<path transform="matrix(1,0,0,-1,-.000000000000000166533,294.57)" stroke-width="1" stroke-linecap="square" stroke-linejoin="round" fill="none" stroke="#0000ff" stroke-opacity=".9" d="M409.86924 147.12265H417.86924 425.86924"/>
<text xml:space="preserve" transform="matrix(1 0 -0 1 -.000000000000000166533 294.57)" font-size="7.970112" font-family="Computer Modern"><tspan y="-144.32265" x="432.26927 438.90837 442.20799 446.4401 451.14247 455.84483 463.36997 468.77735 472.07698 476.77934 480.07099">GroundTruth</tspan></text>
<path transform="matrix(1,0,0,-1,-.000000000000000166533,294.57)" stroke-width="1" stroke-linecap="square" stroke-linejoin="round" fill="none" stroke="#ffa500" stroke-opacity=".8" d="M409.86924 135.9729H417.86924 425.86924"/>
<text xml:space="preserve" transform="matrix(1 0 -0 1 -.000000000000000166533 294.57)" font-size="7.970112" font-family="Computer Modern"><tspan y="-133.1729" x="432.26927 438.2628 444.0172 449.5362">BERT</tspan></text>
</svg>
