<svg xmlns="http://www.w3.org/2000/svg" width="780" height="300" viewBox="0 0 780 300" font-family="Work Sans,sans-serif"><defs><marker id="ah" markerWidth="9" markerHeight="9" refX="6.5" refY="3" orient="auto"><path d="M0,0 L6.5,3 L0,6 Z" fill="#8b929c"/></marker><linearGradient id="gC" x1="0" y1="0" x2="0" y2="1"><stop offset="0" stop-color="#5b86b8"/><stop offset="1" stop-color="#36567f"/></linearGradient><linearGradient id="gD" x1="0" y1="0" x2="0" y2="1"><stop offset="0" stop-color="#e7ecf3"/><stop offset="1" stop-color="#cfd8e6"/></linearGradient><symbol id="ic-meter" viewBox="0 0 24 24"><g fill="none" stroke="currentColor" stroke-width="1.7" stroke-linecap="round" stroke-linejoin="round"><rect x="5" y="2.5" width="14" height="19" rx="2.2"/><rect x="8" y="6" width="8" height="4.5" rx="1"/><circle cx="9.5" cy="15.5" r="1.2"/><circle cx="14.5" cy="15.5" r="1.2"/></g></symbol><symbol id="ic-fridge" viewBox="0 0 24 24"><g fill="none" stroke="currentColor" stroke-width="1.7" stroke-linecap="round" stroke-linejoin="round"><rect x="6" y="2.5" width="12" height="19" rx="2.2"/><line x1="6" y1="9.5" x2="18" y2="9.5"/><line x1="9" y1="5" x2="9" y2="7"/><line x1="9" y1="12.5" x2="9" y2="15"/></g></symbol><symbol id="ic-washer" viewBox="0 0 24 24"><g fill="none" stroke="currentColor" stroke-width="1.7" stroke-linecap="round" stroke-linejoin="round"><rect x="4.5" y="3" width="15" height="18" rx="2.2"/><circle cx="12" cy="13.5" r="4.8"/><circle cx="12" cy="13.5" r="1.4"/><line x1="7" y1="6.2" x2="9" y2="6.2"/></g></symbol><symbol id="ic-dishwasher" viewBox="0 0 24 24"><g fill="none" stroke="currentColor" stroke-width="1.7" stroke-linecap="round" stroke-linejoin="round"><rect x="5" y="3" width="14" height="18" rx="2"/><line x1="5" y1="7.5" x2="19" y2="7.5"/><line x1="8" y1="5.2" x2="11" y2="5.2"/><rect x="8.5" y="10" width="7" height="8" rx="1"/></g></symbol><symbol id="ic-kettle" viewBox="0 0 24 24"><g fill="none" stroke="currentColor" stroke-width="1.7" stroke-linecap="round" stroke-linejoin="round"><path d="M7 11 h9 v6.5 a2.5 2.5 0 0 1 -2.5 2.5 h-4 a2.5 2.5 0 0 1 -2.5 -2.5 z"/><path d="M16 12 l3 -2.5"/><path d="M8.5 11 a3.2 3.2 0 0 1 6 0"/><line x1="11.5" y1="7.6" x2="11.5" y2="8.6"/></g></symbol><symbol id="ic-microwave" viewBox="0 0 24 24"><g fill="none" stroke="currentColor" stroke-width="1.7" stroke-linecap="round" stroke-linejoin="round"><rect x="2.5" y="6" width="19" height="12" rx="2"/><rect x="5" y="8.5" width="9.5" height="7" rx="1"/><circle cx="18" cy="10" r="0.9" fill="currentColor" stroke="none"/><line x1="17" y1="13" x2="19" y2="13"/></g></symbol><symbol id="ic-tv" viewBox="0 0 24 24"><g fill="none" stroke="currentColor" stroke-width="1.7" stroke-linecap="round" stroke-linejoin="round"><rect x="2.5" y="5" width="19" height="12.5" rx="2"/><line x1="8.5" y1="20.5" x2="15.5" y2="20.5"/><line x1="12" y1="17.5" x2="12" y2="20.5"/></g></symbol></defs><text x="390" y="22" text-anchor="middle" font-size="14" fill="#5a626e">aggregate <tspan fill="#1b2330" font-weight="700">window</tspan> (L) &#8594; one <tspan fill="#1b2330" font-weight="700">appliance</tspan> at the centre</text><use href="#ic-meter" x="6" y="130" width="26" height="26" color="#1b2330"/><rect x="44" y="98" width="100" height="92" rx="6" fill="#f6f7f9" stroke="#d8dbe0"/><polygon points="52,184 52,176 63,172 74,142 85,176 95,156 105,124 116,170 127,166 136,168 136,184" fill="#1b3b6f" opacity="0.07"/><polyline points="52,176 63,172 74,142 85,176 95,156 105,124 116,170 127,166 136,168" fill="none" stroke="#1b2330" stroke-width="2.2" stroke-linejoin="round" stroke-linecap="round"/><line x1="94.0" y1="103" x2="94.0" y2="184" stroke="#8b929c" stroke-width="1" stroke-dasharray="3 3" opacity="0.7"/><text x="94.0" y="208" text-anchor="middle" font-size="11.5" fill="#5a626e">L samples</text><polygon points="178,110 204,110 216,98 190,98" fill="url(#gC)" opacity="0.85" stroke="#1b3b6f" stroke-width="1"/><polygon points="204,110 216,98 216,194 204,206" fill="url(#gC)" opacity="0.6" stroke="#1b3b6f" stroke-width="1"/><rect x="178" y="110" width="26" height="96" fill="url(#gC)" stroke="#1b3b6f" stroke-width="1.1"/><text x="197.0" y="224" text-anchor="middle" font-size="11" fill="#1b3b6f">conv</text><text x="197.0" y="237" text-anchor="middle" font-size="11" fill="#5a626e">30</text><polygon points="258,116 282,116 294,104 270,104" fill="url(#gC)" opacity="0.85" stroke="#1b3b6f" stroke-width="1"/><polygon points="282,116 294,104 294,188 282,200" fill="url(#gC)" opacity="0.6" stroke="#1b3b6f" stroke-width="1"/><rect x="258" y="116" width="24" height="84" fill="url(#gC)" stroke="#1b3b6f" stroke-width="1.1"/><text x="276.0" y="218" text-anchor="middle" font-size="11" fill="#1b3b6f">conv</text><text x="276.0" y="231" text-anchor="middle" font-size="11" fill="#5a626e">40</text><polygon points="340,122 362,122 374,110 352,110" fill="url(#gC)" opacity="0.85" stroke="#1b3b6f" stroke-width="1"/><polygon points="362,122 374,110 374,182 362,194" fill="url(#gC)" opacity="0.6" stroke="#1b3b6f" stroke-width="1"/><rect x="340" y="122" width="22" height="72" fill="url(#gC)" stroke="#1b3b6f" stroke-width="1.1"/><text x="357.0" y="212" text-anchor="middle" font-size="11" fill="#1b3b6f">conv</text><text x="357.0" y="225" text-anchor="middle" font-size="11" fill="#5a626e">50</text><polygon points="420,108 432,108 442,98 430,98" fill="url(#gD)" opacity="0.85" stroke="#1b3b6f" stroke-width="1"/><polygon points="432,108 442,98 442,182 432,192" fill="url(#gD)" opacity="0.6" stroke="#1b3b6f" stroke-width="1"/><rect x="420" y="108" width="12" height="84" fill="url(#gD)" stroke="#1b3b6f" stroke-width="1.1"/><text x="430" y="212" text-anchor="middle" font-size="11" fill="#5a626e">flatten</text><rect x="470" y="120" width="48" height="60" rx="5" fill="url(#gD)" stroke="#1b3b6f" stroke-width="1.1"/><text x="494" y="155" text-anchor="middle" font-size="11.5" fill="#1b3b6f">dense</text><rect x="560" y="98" width="172" height="92" rx="6" fill="#f6f7f9" stroke="#d8dbe0"/><use href="#ic-fridge" x="569" y="107" width="21" height="21" color="#3b6ea5"/><polyline points="572,174 588,172 604,150 620,176 636,160 645,128 660,172 686,170 720,170" fill="none" stroke="#8b929c" stroke-width="1.4" stroke-linejoin="round" stroke-linecap="round" opacity="0.5"/><line x1="645" y1="106" x2="645" y2="126" stroke="#c44536" stroke-width="1.1" stroke-dasharray="3 3"/><rect x="642" y="128" width="6" height="54" rx="2.5" fill="#c44536"/><circle cx="645" cy="128" r="6.5" fill="#c44536"/><text x="646.0" y="208" text-anchor="middle" font-size="11.5" fill="#3b6ea5">&#375; · power at centre</text><line x1="146" y1="150" x2="174" y2="150" stroke="#8b929c" stroke-width="1.7" marker-end="url(#ah)"/><line x1="376" y1="150" x2="416" y2="150" stroke="#8b929c" stroke-width="1.7" marker-end="url(#ah)"/><line x1="520" y1="150" x2="556" y2="150" stroke="#8b929c" stroke-width="1.7" marker-end="url(#ah)"/></svg>