<svg xmlns="http://www.w3.org/2000/svg" width="780" height="330" viewBox="0 0 780 330" font-family="Work Sans,sans-serif"><defs><marker id="ah" markerWidth="9" markerHeight="9" refX="6.5" refY="3" orient="auto"><path d="M0,0 L6.5,3 L0,6 Z" fill="#8b929c"/></marker><linearGradient id="gC" x1="0" y1="0" x2="0" y2="1"><stop offset="0" stop-color="#5b86b8"/><stop offset="1" stop-color="#36567f"/></linearGradient><linearGradient id="gD" x1="0" y1="0" x2="0" y2="1"><stop offset="0" stop-color="#e7ecf3"/><stop offset="1" stop-color="#cfd8e6"/></linearGradient><symbol id="ic-meter" viewBox="0 0 24 24"><g fill="none" stroke="currentColor" stroke-width="1.7" stroke-linecap="round" stroke-linejoin="round"><rect x="5" y="2.5" width="14" height="19" rx="2.2"/><rect x="8" y="6" width="8" height="4.5" rx="1"/><circle cx="9.5" cy="15.5" r="1.2"/><circle cx="14.5" cy="15.5" r="1.2"/></g></symbol><symbol id="ic-fridge" viewBox="0 0 24 24"><g fill="none" stroke="currentColor" stroke-width="1.7" stroke-linecap="round" stroke-linejoin="round"><rect x="6" y="2.5" width="12" height="19" rx="2.2"/><line x1="6" y1="9.5" x2="18" y2="9.5"/><line x1="9" y1="5" x2="9" y2="7"/><line x1="9" y1="12.5" x2="9" y2="15"/></g></symbol><symbol id="ic-washer" viewBox="0 0 24 24"><g fill="none" stroke="currentColor" stroke-width="1.7" stroke-linecap="round" stroke-linejoin="round"><rect x="4.5" y="3" width="15" height="18" rx="2.2"/><circle cx="12" cy="13.5" r="4.8"/><circle cx="12" cy="13.5" r="1.4"/><line x1="7" y1="6.2" x2="9" y2="6.2"/></g></symbol><symbol id="ic-dishwasher" viewBox="0 0 24 24"><g fill="none" stroke="currentColor" stroke-width="1.7" stroke-linecap="round" stroke-linejoin="round"><rect x="5" y="3" width="14" height="18" rx="2"/><line x1="5" y1="7.5" x2="19" y2="7.5"/><line x1="8" y1="5.2" x2="11" y2="5.2"/><rect x="8.5" y="10" width="7" height="8" rx="1"/></g></symbol><symbol id="ic-kettle" viewBox="0 0 24 24"><g fill="none" stroke="currentColor" stroke-width="1.7" stroke-linecap="round" stroke-linejoin="round"><path d="M7 11 h9 v6.5 a2.5 2.5 0 0 1 -2.5 2.5 h-4 a2.5 2.5 0 0 1 -2.5 -2.5 z"/><path d="M16 12 l3 -2.5"/><path d="M8.5 11 a3.2 3.2 0 0 1 6 0"/><line x1="11.5" y1="7.6" x2="11.5" y2="8.6"/></g></symbol><symbol id="ic-microwave" viewBox="0 0 24 24"><g fill="none" stroke="currentColor" stroke-width="1.7" stroke-linecap="round" stroke-linejoin="round"><rect x="2.5" y="6" width="19" height="12" rx="2"/><rect x="5" y="8.5" width="9.5" height="7" rx="1"/><circle cx="18" cy="10" r="0.9" fill="currentColor" stroke="none"/><line x1="17" y1="13" x2="19" y2="13"/></g></symbol><symbol id="ic-tv" viewBox="0 0 24 24"><g fill="none" stroke="currentColor" stroke-width="1.7" stroke-linecap="round" stroke-linejoin="round"><rect x="2.5" y="5" width="19" height="12.5" rx="2"/><line x1="8.5" y1="20.5" x2="15.5" y2="20.5"/><line x1="12" y1="17.5" x2="12" y2="20.5"/></g></symbol></defs><text x="390" y="20" text-anchor="middle" font-size="14" fill="#5a626e">aggregate <tspan fill="#1b2330" font-weight="700">sequence</tspan> &#8594; appliance <tspan fill="#1b2330" font-weight="700">sequence</tspan></text><use href="#ic-meter" x="20" y="150" width="28" height="28" color="#1b2330"/><rect x="58" y="150" width="13" height="30" rx="3" fill="#eef2f8" stroke="#1b3b6f" stroke-width="1.1"/><rect x="61.5" y="168" width="6" height="11" rx="1.5" fill="#3b6ea5"/><rect x="74" y="150" width="13" height="30" rx="3" fill="#eef2f8" stroke="#1b3b6f" stroke-width="1.1"/><rect x="77.5" y="162" width="6" height="17" rx="1.5" fill="#3b6ea5"/><rect x="90" y="150" width="13" height="30" rx="3" fill="#eef2f8" stroke="#1b3b6f" stroke-width="1.1"/><rect x="93.5" y="165" width="6" height="14" rx="1.5" fill="#3b6ea5"/><rect x="106" y="150" width="13" height="30" rx="3" fill="#eef2f8" stroke="#1b3b6f" stroke-width="1.1"/><rect x="109.5" y="157" width="6" height="22" rx="1.5" fill="#3b6ea5"/><rect x="122" y="150" width="13" height="30" rx="3" fill="#eef2f8" stroke="#1b3b6f" stroke-width="1.1"/><rect x="125.5" y="164" width="6" height="15" rx="1.5" fill="#3b6ea5"/><rect x="138" y="150" width="13" height="30" rx="3" fill="#eef2f8" stroke="#1b3b6f" stroke-width="1.1"/><rect x="141.5" y="160" width="6" height="19" rx="1.5" fill="#3b6ea5"/><text x="108" y="198" text-anchor="middle" font-size="11" fill="#5a626e">aggregate</text><circle cx="178" cy="165" r="9" fill="#fff" stroke="#1b3b6f" stroke-width="1.3"/><text x="178" y="169" text-anchor="middle" font-size="13" fill="#1b3b6f">+</text><text x="178" y="192" text-anchor="middle" font-size="10" fill="#5a626e">pos.</text><rect x="230" y="58" width="330" height="210" rx="10" fill="none" stroke="#1b3b6f" stroke-width="1.4" stroke-dasharray="5 4"/><text x="552" y="76" text-anchor="end" font-size="11.5" fill="#5a626e">encoder &#215; N</text><rect x="260" y="76" width="270" height="46" rx="6" fill="url(#gC)" stroke="#1b3b6f" stroke-width="1.1"/><text x="395.0" y="104.0" text-anchor="middle" font-size="13" font-weight="600" fill="#fff">Multi-Head Self-Attention</text><rect x="260" y="132" width="270" height="30" rx="6" fill="url(#gD)" stroke="#1b3b6f" stroke-width="1.1"/><text x="395.0" y="152.0" text-anchor="middle" font-size="13" font-weight="600" fill="#1b3b6f">Add &amp; Norm</text><rect x="260" y="174" width="270" height="42" rx="6" fill="url(#gD)" stroke="#1b3b6f" stroke-width="1.1"/><text x="395.0" y="200.0" text-anchor="middle" font-size="13" font-weight="600" fill="#1b3b6f">Feed-Forward</text><rect x="260" y="226" width="270" height="30" rx="6" fill="url(#gD)" stroke="#1b3b6f" stroke-width="1.1"/><text x="395.0" y="246.0" text-anchor="middle" font-size="13" font-weight="600" fill="#1b3b6f">Add &amp; Norm</text><path d="M252,150 C238,150 238,99 258,99" fill="none" stroke="#c44536" stroke-width="1.4" marker-end="url(#ah)"/><path d="M252,241 C238,241 238,197 258,197" fill="none" stroke="#c44536" stroke-width="1.4" marker-end="url(#ah)"/><text x="236" y="175" font-size="10" fill="#c44536" transform="rotate(-90 236 175)">residual</text><use href="#ic-fridge" x="600" y="150" width="26" height="26" color="#3b6ea5"/><rect x="636" y="150" width="13" height="30" rx="3" fill="#fbeeec" stroke="#c44536" stroke-width="1.1"/><rect x="639.5" y="175" width="6" height="4" rx="1.5" fill="#c44536"/><rect x="652" y="150" width="13" height="30" rx="3" fill="#fbeeec" stroke="#c44536" stroke-width="1.1"/><rect x="655.5" y="174" width="6" height="5" rx="1.5" fill="#c44536"/><rect x="668" y="150" width="13" height="30" rx="3" fill="#fbeeec" stroke="#c44536" stroke-width="1.1"/><rect x="671.5" y="171" width="6" height="8" rx="1.5" fill="#c44536"/><rect x="684" y="150" width="13" height="30" rx="3" fill="#fbeeec" stroke="#c44536" stroke-width="1.1"/><rect x="687.5" y="155" width="6" height="24" rx="1.5" fill="#c44536"/><rect x="700" y="150" width="13" height="30" rx="3" fill="#fbeeec" stroke="#c44536" stroke-width="1.1"/><rect x="703.5" y="158" width="6" height="21" rx="1.5" fill="#c44536"/><rect x="716" y="150" width="13" height="30" rx="3" fill="#fbeeec" stroke="#c44536" stroke-width="1.1"/><rect x="719.5" y="173" width="6" height="6" rx="1.5" fill="#c44536"/><text x="684" y="198" text-anchor="middle" font-size="11" fill="#3b6ea5">appliance</text><line x1="190" y1="165" x2="226" y2="165" stroke="#8b929c" stroke-width="1.6" marker-end="url(#ah)"/><line x1="564" y1="165" x2="598" y2="165" stroke="#8b929c" stroke-width="1.6" marker-end="url(#ah)"/></svg>